<?xml version="1.0" encoding="utf-8"?>
<!-- Generator: Adobe Illustrator 26.4.1, SVG Export Plug-In . SVG Version: 6.00 Build 0)  -->
<svg version="1.1" id="Слой_1" xmlns="http://www.w3.org/2000/svg" xmlns:xlink="http://www.w3.org/1999/xlink" x="0px" y="0px"
	 viewBox="0 0 323 330" style="enable-background:new 0 0 323 330;" xml:space="preserve">
<style type="text/css">
	.st0{fill:#8E9DE7;stroke:#FFFFFF;stroke-width:7;stroke-miterlimit:10;}
	.st1{fill:none;stroke:#FFFFFF;stroke-width:7;stroke-miterlimit:10;}
	.st2{fill:#FFFFFF;}
	.st3{fill:#FFB4FB;}
	.st4{fill:#FFCA7F;}
	.st5{fill:none;stroke:#666666;stroke-width:0.75;stroke-miterlimit:10;}
	.st6{fill:none;stroke:#666666;stroke-width:0.5;stroke-miterlimit:10;}
</style>
<ellipse transform="matrix(0.7071 -0.7071 0.7071 0.7071 -70.8651 162.2386)" class="st0" cx="160.4" cy="166.7" rx="148.3" ry="148.3"/>
<circle class="st1" cx="105.3" cy="111.3" r="49.7"/>
<circle class="st1" cx="210.6" cy="225.6" r="50.2"/>
<circle class="st2" cx="105.3" cy="93.1" r="12.8"/>
<circle class="st2" cx="210.6" cy="206.6" r="12.8"/>
<path class="st3" d="M186.5,238.8v15.6c0,3.1,2.4,5.6,5.3,5.6h37.7c2.9,0,5.3-2.5,5.3-5.6v-15.6c-0.4-1.3-0.9-2.6-1.5-4
	c-4.1-7.9-12.1-10.6-15-11.5c-5.1,0-10.1,0-15.2,0c-2.9,0.8-10.9,3.6-15,11.5C187.3,236.1,186.8,237.5,186.5,238.8z"/>
<path class="st4" d="M81.2,125.4V141c0,3.1,2.4,5.6,5.3,5.6h37.7c2.9,0,5.3-2.5,5.3-5.6v-15.6c-0.4-1.3-0.9-2.6-1.5-4
	c-4.1-7.9-12.1-10.6-15-11.5c-5.1,0-10.1,0-15.2,0c-2.9,0.8-10.9,3.6-15,11.5C82,122.8,81.5,124.1,81.2,125.4z"/>
<path class="st5" d="M180.5,110.2h27.2c8.6,0,15.7,7,15.7,15.7V161"/>
<polygon class="st6" points="180.5,105.2 180.5,116.2 169.7,110.7 "/>
<path class="st5" d="M131,235h-27.2c-8.6,0-15.7-7-15.7-15.7v-35.1"/>
<polygon class="st5" points="131,240.1 131,229.1 141.3,234.6 "/>
</svg>
