<?xml version="1.0" encoding="utf-8"?>
<!-- Generator: Adobe Illustrator 26.4.1, SVG Export Plug-In . SVG Version: 6.00 Build 0)  -->
<svg version="1.1" id="Слой_1" xmlns="http://www.w3.org/2000/svg" xmlns:xlink="http://www.w3.org/1999/xlink" x="0px" y="0px"
	 viewBox="0 0 372 330" style="enable-background:new 0 0 372 330;" xml:space="preserve">
<style type="text/css">
	.st0{fill:#151400;stroke:#FFC994;stroke-width:3;stroke-miterlimit:10;}
	.st1{fill:#8E9DE7;stroke:#FFFFFF;stroke-width:7;stroke-miterlimit:10;}
	.st2{fill:#F2F2F2;stroke:#000000;stroke-width:0.5;stroke-miterlimit:10;}
	.st3{fill:none;stroke:#808080;stroke-width:2;stroke-miterlimit:10;}
	.st4{fill:#2A45FF;}
	.st5{fill:none;}
	.st6{font-family:'MyriadPro-Regular';}
	.st7{font-size:17px;}
	.st8{fill:#E3E1FF;stroke:#000000;stroke-width:0.5;stroke-miterlimit:10;}
	.st9{fill:#4D4D4D;stroke:#C4BFFF;stroke-width:3;stroke-miterlimit:10;}
	.st10{fill:#FF5FFC;stroke:#000000;stroke-width:0.75;stroke-miterlimit:10;}
	.st11{fill:none;stroke:#000000;stroke-miterlimit:10;}
	.st12{fill:#60C17D;stroke:#000000;stroke-width:0.5;stroke-miterlimit:10;}
	.st13{fill:#FFE9B4;stroke:#000000;stroke-width:0.5;stroke-miterlimit:10;}
	.st14{fill:#808080;stroke:#000000;stroke-width:0.5;stroke-miterlimit:10;}
	.st15{fill:#FFC153;stroke:#000000;stroke-width:0.5;stroke-miterlimit:10;}
	.st16{fill:#94BEFF;stroke:#000000;stroke-width:0.5;stroke-miterlimit:10;}
	.st17{font-size:12px;}
	.st18{fill:#F0EFFF;stroke:#000000;stroke-width:0.5;stroke-miterlimit:10;}
	.st19{fill:#4D4D4D;}
	.st20{fill:#608080;stroke:#000000;stroke-width:0.5;stroke-miterlimit:10;}
	.st21{fill:#C4BFFF;stroke:#000000;stroke-width:0.5;stroke-miterlimit:10;}
</style>
<path class="st0" d="M131.1,141.1c-26.7,0-48.4,6.1-48.4,13.5c0,7.5,21.7,13.5,48.4,13.5c26.7,0,48.4-6.1,48.4-13.5
	C179.5,147.2,157.8,141.1,131.1,141.1z M136.6,166.3c8-2,16-1,24-3C152.6,165.3,144.6,164.3,136.6,166.3z"/>
<path class="st1" d="M184.6,16.9c-81.9,0-148.3,66.4-148.3,148.3s66.4,148.3,148.3,148.3c81.9,0,148.3-66.4,148.3-148.3
	S266.5,16.9,184.6,16.9z M136.6,166.3c8-2,16-1,24-3C152.6,165.3,144.6,164.3,136.6,166.3z"/>
<rect x="144.3" y="64.7" class="st2" width="122" height="179.9"/>
<path class="st3" d="M261.8,65.5c-4.8-10.3-13.1-11.7-16.3-7.7c-3,3.8-3.3,14.2,1.6,22.6"/>
<rect x="144.3" y="242.9" class="st2" width="125.1" height="3.6"/>
<rect x="188.3" y="152.8" transform="matrix(6.123234e-17 -1 1 6.123234e-17 120.2079 429.2889)" class="st2" width="172.8" height="3.6"/>
<rect x="182.4" y="153.7" transform="matrix(6.123234e-17 -1 1 6.123234e-17 115.7001 426.6478)" class="st2" width="177.6" height="3.6"/>
<rect x="176.9" y="153.9" transform="matrix(6.123234e-17 -1 1 6.123234e-17 111.8681 423.3309)" class="st2" width="181.5" height="3.6"/>
<rect x="144.3" y="246.5" class="st2" width="121.5" height="3.6"/>
<path class="st3" d="M167.4,65.5c-4.8-10.3-13.1-11.7-16.3-7.7c-3,3.8-3.3,14.2,1.6,22.6"/>
<path class="st3" d="M236.8,65.5c-4.8-10.3-13.1-11.7-16.3-7.7c-3,3.8-3.3,14.2,1.6,22.6"/>
<path class="st3" d="M213.2,65.5c-4.8-10.3-13.1-11.7-16.3-7.7c-3,3.8-3.3,14.2,1.6,22.6"/>
<path class="st3" d="M189.6,65.5c-4.8-10.3-13.1-11.7-16.3-7.7c-3,3.8-3.3,14.2,1.6,22.6"/>
<g>
	<g>
		<path class="st4" d="M177.3,105.5c2.2-3.1,5-6.7,9-7.5c0.7-0.2,2.1-0.4,2.7,0.2c0.5,0.5,0.4,1.4,0.4,2c-0.1,1.4-0.4,2.9,0.1,4.3
			c1.3,3.5,5.6-0.1,7.3-1.4c1.5-1.1,3-1.9,4.9-1.1c2,0.8,3.5,2.6,4.8,4.3c0.3,0.4,0.8,0.3,1.2,0.2c2-1,3.9-2,5.9-3
			c1.9-1,3.8-2.1,5.8-2.9c0.5-0.2,1.1-0.5,1.6-0.1c0.3,0.2,0.5,0.8,0.6,1.1c0.4,0.6,0.9,1.1,1.4,1.5c1.1,0.7,2.5,1,3.8,0.9
			c3.3-0.2,5.8-2.3,8.6-3.8c1.4-0.8,2.9-1.3,4.5-0.9c1.4,0.3,2.7,1.2,2.7,2.7c0,1.3,2,1.3,2,0c0-3.2-3.4-5-6.3-4.8
			c-3.9,0.3-6.5,3.6-10.1,4.6c-1.5,0.4-3.6,0.4-4.7-0.9c-0.6-0.7-0.8-1.6-1.7-2.2c-0.7-0.4-1.4-0.5-2.2-0.3c-1.1,0.2-2.1,0.8-3,1.3
			c-1,0.5-2,1-3,1.5c-2.3,1.2-4.6,2.3-7,3.5c0.4,0.1,0.8,0.1,1.2,0.2c-2.1-2.7-5.1-5.8-8.9-5c-1.5,0.3-2.8,1.2-3.9,2.2
			c-1.2,1-2.5,2.1-4.2,2c0.3,0.2,0.6,0.3,0.9,0.5c-1.2-1.6-0.2-3.9-0.4-5.7c-0.3-2.3-2.2-3.2-4.4-3c-5.1,0.5-8.5,4.8-11.3,8.6
			C174.8,105.5,176.5,106.5,177.3,105.5L177.3,105.5z"/>
	</g>
</g>
<g>
	<g>
		<path class="st4" d="M174.8,139.9c1.2,1.8,2.3,3.7,3.5,5.5c0.8,1.2,1.7,2.5,3.3,2.7c3.6,0.5,4.5-3.8,6.5-5.7
			c0.6-0.6,1.4-1.2,2.2-0.8c0.7,0.4,1,1.4,1.6,2c1,1.1,2.5,1.4,4,1.2c1.5-0.3,2.9-1.1,4.1-2.1c1.4-1.1,3-2.8,4.9-2.7
			c3.4,0.2,3.9,5.3,4.1,7.8c0,0.7,0.6,1.1,1.3,1c4.2-1,6.4-5,9.9-7c1.8-1,3.8-1.1,5.4,0.4c1.7,1.6,2.4,4.2,2.9,6.4
			c0.1,0.6,0.9,0.9,1.5,0.6c1.4-0.9,2.8-1.8,4.2-2.7c1.4-0.9,2.8-2.1,4.3-2.8c1.1-0.5,1.4-0.1,2,0.7c0.3,0.4,0.6,0.9,1,1.2
			c0.8,0.7,1.8,1.1,2.8,1.3c2.2,0.3,4.5-0.5,6.5-1.6c2.5-1.4,5.2-3.7,8.3-2.9c1.2,0.3,1.8-1.6,0.5-1.9c-2.9-0.8-5.6,0.6-8.1,2.1
			c-2.1,1.3-4.9,3.1-7.5,2.3c-1.3-0.4-1.7-1.6-2.6-2.5c-0.9-0.9-2.1-1-3.3-0.6c-1.5,0.6-2.9,1.8-4.3,2.6c-1.6,1-3.2,2.1-4.8,3.1
			c0.5,0.2,1,0.4,1.5,0.6c-1-4.4-3.7-10.4-9.3-8.9c-4.6,1.3-6.7,6.6-11.4,7.7c0.4,0.3,0.8,0.6,1.3,1c-0.1-2.8-0.6-5.9-2.5-8.1
			c-2.2-2.6-5.6-1.9-8,0c-1.4,1.1-2.7,2.4-4.4,2.9c-0.8,0.2-1.7,0.3-2.4-0.2c-0.7-0.5-0.9-1.4-1.5-2c-2.7-2.9-5.9,0.8-7.2,3.1
			c-0.9,1.6-2.6,3.7-4.3,1.6c-1.5-1.9-2.7-4.2-4-6.3C175.8,137.8,174.1,138.8,174.8,139.9L174.8,139.9z"/>
	</g>
</g>
<g>
	<g>
		<path class="st4" d="M182.1,178.7c0.7,1.9,1.4,3.9,2.2,5.8c0.2,0.7,1.1,1,1.7,0.4c2.2-2.5,3.8-5.4,4.7-8.6c-0.5,0.2-1,0.4-1.5,0.6
			c2.4,1.4,2.5,4.8,4.2,6.8c2.6,2.9,6,1,8.3-1.2c1.3-1.2,2.4-2.6,4.3-2.9c2-0.4,2.1,1.3,2.8,2.7c0.7,1.3,2.1,1.8,3.3,0.9
			c0.8-0.6,1.5-1.5,2.2-2.2c0.9-0.9,1.7-1.7,2.6-2.5s1.8-1.6,2.7-2.4c0.9-0.8,2-2,3.2-2.4c1.8-0.5,2.2,2.8,2.3,4
			c0,0.9,1.1,1.3,1.7,0.7c1.4-1.4,3.3-2.9,5.4-2.7c1.8,0.1,3.6,1.8,3,3.6c-0.2,0.6,0.3,1.3,1,1.3c3.2-0.3,5.7-2.3,8.8-3.2
			c2.1-0.6,5.4-0.5,6.1,2.1c0.3,1.2,2.3,0.7,1.9-0.5c-0.8-2.8-3.7-4-6.5-3.8c-3.7,0.2-6.6,3.1-10.3,3.5c0.3,0.4,0.6,0.8,1,1.3
			c0.8-2.6-1.1-5.2-3.6-6c-3-0.9-6,1.1-8.1,3.1c0.6,0.2,1.1,0.5,1.7,0.7c-0.1-2.6-1.4-7-4.9-5.9c-0.9,0.3-1.6,1-2.3,1.5
			c-1,0.8-2,1.7-3,2.5c-1.8,1.6-3.5,3.2-5.1,4.9c-0.3,0.3-0.8,1-1.1,0.8c-0.2-0.1-0.3-0.7-0.4-0.9c-0.3-0.8-0.6-1.5-1.2-2.1
			c-1.1-1-2.7-1.1-4.1-0.7c-1.8,0.5-3,1.7-4.3,2.9c-1.2,1.2-3.2,3.4-5.1,2.3c-1.4-0.8-1.9-2.7-2.5-4c-0.7-1.5-1.5-2.9-2.9-3.7
			c-0.6-0.3-1.3,0-1.5,0.6c-0.8,2.9-2.2,5.5-4.2,7.7c0.6,0.1,1.1,0.3,1.7,0.4c-0.7-1.9-1.4-3.9-2.2-5.8
			C183.6,176.9,181.6,177.5,182.1,178.7L182.1,178.7z"/>
	</g>
</g>
<g>
	<g>
		<path class="st4" d="M181.1,215.3c-0.3,6,0,12,0.9,18c0.1,0.7,1.2,1,1.7,0.4c3-3.3,5.9-6.6,8.9-10c0.7-0.8,1.3-1.6,2.1-2.3
			c1.2-1,1.6,0.3,1.9,1.2c0.7,2,0.8,4.2,0.5,6.3c-0.1,0.8,0.7,1.6,1.5,1.1c3.4-2.1,4.8-5.9,7.4-8.7c1.3-1.4,3.1-2.7,5.1-2.3
			c1.6,0.3,3,1.5,2.8,3.3c-0.2,1.1,1.7,1.3,2,0.3c0.5-1.8,2.5-3.1,4.4-2.4c1.7,0.6,2.5,2.6,2.1,4.3c-0.2,0.6,0.3,1.3,1,1.3
			c2.6-0.3,3.9-2.5,5.6-4.2c0.8-0.8,1.9-1.6,3-0.7c1.1,0.9,1.3,2.9,1.3,4.2c0,0.5,0.4,1,1,1c1.9,0,3.4-0.9,4.8-2
			c1.6-1.3,3.2-3,5.4-2.9c5.8,0.1,7,7.2,7.5,11.6c0.1,1.3,2.2,1.3,2,0c-0.6-5.2-1.8-11.4-7.5-13.3c-2.3-0.7-4.6-0.1-6.5,1.3
			c-1.7,1.3-3.5,3.4-5.8,3.3c0.3,0.3,0.7,0.7,1,1c-0.1-2.9-1.4-7.5-5.3-6.4c-1.3,0.4-2.3,1.4-3.2,2.4c-0.9,1-1.9,2.6-3.4,2.8
			c0.3,0.4,0.6,0.8,1,1.3c0.8-2.7-0.7-5.9-3.5-6.7c-2.9-0.9-6,1-6.8,3.8c0.7,0.1,1.3,0.2,2,0.3c0.3-1.9-0.9-3.6-2.6-4.5
			c-1.8-1-3.9-1-5.8-0.1c-4.6,2.2-5.7,8-10,10.7c0.5,0.4,1,0.8,1.5,1.1c0.4-2.5,0.3-5.1-0.6-7.5c-0.6-1.8-1.9-3.9-4.2-2.7
			c-1.1,0.6-1.9,1.7-2.7,2.6c-1,1.1-2,2.2-3,3.3c-2.1,2.3-4.2,4.7-6.3,7c0.6,0.1,1.1,0.3,1.7,0.4c-0.9-5.8-1.2-11.6-0.8-17.4
			C183.2,214,181.2,214,181.1,215.3L181.1,215.3z"/>
	</g>
</g>
<g>
	<g>
		<path d="M154,227c1.3,0,1.3-2,0-2C152.7,225,152.7,227,154,227L154,227z"/>
	</g>
</g>
<g>
	<g>
		<path d="M160.1,227.6c1.3,0,1.3-2,0-2C158.8,225.6,158.8,227.6,160.1,227.6L160.1,227.6z"/>
	</g>
</g>
<g>
	<g>
		<path d="M165.2,227c1.3,0,1.3-2,0-2C164,225,164,227,165.2,227L165.2,227z"/>
	</g>
</g>
<rect x="153.7" y="170.1" class="st5" width="45.4" height="47.5"/>
<text transform="matrix(1 0 0 1 153.6722 182.2041)" class="st6 st7">о</text>
<path class="st8" d="M175.1,151.8c-6.2-3.8-12.2-5.9-17.3-7.2h-53.6c-5.3,1.5-11.2,3.8-17.3,7.2c-1.4,0.8-2.8,1.6-4.1,2.4
	c6.9,57.5,12,99.6,12.3,101.5c0.2,1.4,0.8,2.6,0.8,2.6c0,0,0.5,1,1.4,1.9c3.1,3.3,65.8,4.6,68.7,0.3c0.9-1.3,1.3-2.7,1.3-2.7
	c0.3-1,0.4-1.8,0.5-2.5c3.9-33.6,7.8-67.1,11.7-100.7C178.1,153.7,176.7,152.7,175.1,151.8z M136.6,166.3c8-2,16-1,24-3
	C152.6,165.3,144.6,164.3,136.6,166.3z"/>
<path class="st9" d="M131.1,141.1c-26.7,0-48.4,6.1-48.4,13.5s21.7,13.5,48.4,13.5s48.4-6.1,48.4-13.5S157.8,141.1,131.1,141.1z
	 M136.6,166.3c8-2,16-1,24-3C152.6,165.3,144.6,164.3,136.6,166.3z"/>
<path class="st10" d="M88.8,293.3"/>
<path class="st11" d="M131,139.3c-27.6,0-49.9,6.9-49.9,15.4c0,8.5,22.3,15.4,49.9,15.4c27.6,0,49.9-6.9,49.9-15.4
	C180.9,146.2,158.5,139.3,131,139.3z M136,165.5c8.2-0.8,16.4-1.5,24.6-2.3C152.4,164,144.2,164.8,136,165.5z"/>
<path class="st12" d="M148.1,164.1c-1.1,0.3-2.3,0.6-3.5,0.9c-1.2,0.3-2.4,0.6-3.5,0.8c-8.5-23.5-17-47-25.6-70.6L122,93
	C130.7,116.7,139.4,140.4,148.1,164.1z"/>
<path class="st13" d="M121,93.3l-4.2,1.5c-1,0.4-2-0.1-2.4-1.1l-0.4-1.1c-0.4-1,0.1-2,1.1-2.4l4.2-1.5c1-0.4,2,0.1,2.4,1.1l0.4,1.1
	C122.4,91.9,121.9,92.9,121,93.3z"/>
<rect x="114.7" y="93" transform="matrix(0.94 -0.3412 0.3412 0.94 -25.0748 46.2326)" class="st14" width="8.5" height="2.9"/>
<path class="st15" d="M151.7,85.3c-5.4,27.1-10.7,54.1-16.1,81.2c3.8-0.1,7.9-0.4,12.2-0.9c4.6-0.5,8.9-1.2,12.9-1.9
	c4.9-24.7,9.8-49.5,14.6-74.2L151.7,85.3z"/>
<path class="st16" d="M128.4,166.4c-1.3,0-2.7,0-4.2-0.1c-1.3-0.1-2.5-0.2-3.7-0.4c-3.1-24.8-6.3-49.6-9.4-74.5l6.8-0.9
	C121.4,115.9,124.9,141.1,128.4,166.4z"/>
<path class="st13" d="M116.8,90.7l-4.5,0.6c-1,0.1-2-0.6-2.1-1.6l-0.1-1.1c-0.1-1,0.6-2,1.6-2.1l4.5-0.6c1-0.1,2,0.6,2.1,1.6
	l0.1,1.1C118.6,89.6,117.8,90.5,116.8,90.7z"/>
<rect x="110.3" y="89.9" transform="matrix(0.992 -0.1261 0.1261 0.992 -10.5987 15.177)" class="st14" width="8.5" height="2.9"/>
<rect x="114.9" y="114.4" transform="matrix(0.1997 -0.9799 0.9799 0.1997 0.4275 253.4803)" class="st5" width="80.9" height="24.2"/>
<text transform="matrix(0.9848 0.1735 -0.1735 0.9848 150.0764 92.7628)"><tspan x="0" y="0" class="st6 st17">-</tspan><tspan x="-0.4" y="14.4" class="st6 st17">-</tspan><tspan x="-0.7" y="28.8" class="st6 st17">-</tspan><tspan x="-1.1" y="43.2" class="st6 st17">-</tspan><tspan x="-1.5" y="57.6" class="st6 st17">-</tspan><tspan x="-1.9" y="72" class="st6 st17">-</tspan></text>
<polygon class="st18" points="264.9,266 266.3,278.6 268.2,271.1 "/>
<rect x="224.2" y="168.9" transform="matrix(0.4668 -0.8844 0.8844 0.4668 -3.8128 334.1065)" class="st14" width="102" height="2.7"/>
<rect x="258" y="155.7" transform="matrix(0.9942 -0.108 0.108 0.9942 -21.5415 29.434)" class="st14" width="5.9" height="115.8"/>
<path class="st19" d="M246.8,150.8l-0.7,1c-0.3,0.4-0.8,0.5-1.2,0.2l-7.3-4.9c-0.4-0.3-0.5-0.8-0.2-1.2l0.7-1
	c0.3-0.4,0.8-0.5,1.2-0.2l7.3,4.9C247,149.9,247.1,150.4,246.8,150.8z"/>
<path class="st19" d="M248.5,148.3l-0.7,1.1c-0.3,0.4-0.8,0.5-1.2,0.2l-7.3-4.9c-0.4-0.3-0.5-0.8-0.2-1.2l0.7-1.1
	c0.3-0.4,0.8-0.5,1.2-0.2l7.3,4.9C248.7,147.4,248.8,147.9,248.5,148.3z"/>
<path class="st20" d="M361.4,111l-7.2,3.2c-0.3,0.1-0.6,0-0.8-0.3l-0.3-0.7c-0.1-0.3,0-0.6,0.3-0.8l7.2-3.2c0.3-0.1,0.6,0,0.8,0.3
	l0.3,0.7C361.8,110.5,361.7,110.8,361.4,111z"/>
<rect x="302.3" y="79.3" transform="matrix(-0.4021 -0.9156 0.9156 -0.4021 304.2057 468.5093)" class="st14" width="5.5" height="111.2"/>
<path class="st8" d="M254.2,164.2l-12.8-8.5c-1.5-1-2-3.1-0.9-4.7l4.6-6.9c1-1.5,3.1-2,4.7-0.9l12.8,8.5c1.5,1,2,3.1,0.9,4.7
	l-4.6,6.9C257.8,164.8,255.8,165.2,254.2,164.2z"/>
<path class="st21" d="M245.9,154.3l-1.3-0.9c-1-0.7-1.3-2-0.6-3l1.9-2.9c0.7-1,2-1.3,3-0.6l1.3,0.9c1,0.7,1.3,2,0.6,3l-1.9,2.9
	C248.3,154.7,246.9,155,245.9,154.3z"/>
<circle class="st8" cx="349.3" cy="115.5" r="2"/>
<path class="st14" d="M281.1,172.6L281.1,172.6c-1,1.8-3.3,2.4-5.1,1.4l-4.6-2.6c-1.8-1-2.4-3.3-1.4-5.1l0,0c1-1.8,3.3-2.4,5.1-1.4
	l4.6,2.6C281.5,168.5,282.1,170.8,281.1,172.6z"/>
<path class="st21" d="M274,171.9L274,171.9c-1.4-0.8-1.9-2.6-1.1-4l0,0c0.8-1.4,2.6-1.9,4-1.1l0,0c1.4,0.8,1.9,2.6,1.1,4v0
	C277.2,172.3,275.4,172.8,274,171.9z"/>
</svg>
