<?xml version="1.0" encoding="utf-8"?>
<!-- Generator: Adobe Illustrator 26.4.1, SVG Export Plug-In . SVG Version: 6.00 Build 0)  -->
<svg version="1.1" id="Слой_1" xmlns="http://www.w3.org/2000/svg" xmlns:xlink="http://www.w3.org/1999/xlink" x="0px" y="0px"
	 viewBox="0 0 376.9 350.9" style="enable-background:new 0 0 376.9 350.9;" xml:space="preserve">
<style type="text/css">
	.st0{fill:#8E9DE7;}
	.st1{fill:#FFCA40;}
	.st2{fill:#FFFFFF;stroke:#FFFFFF;stroke-width:2;stroke-miterlimit:10;}
	.st3{fill:#FFFFFF;stroke:#BFBFBF;stroke-miterlimit:10;}
	.st4{fill:#B86543;}
	.st5{fill:#DEE0DD;}
	.st6{fill:#3FC6FF;}
	.st7{fill:#8CC599;}
	.st8{fill:#8CC599;stroke:#407F55;stroke-width:3.9999;stroke-miterlimit:9.9998;}
	.st9{fill:#8CC599;stroke:#407F55;stroke-width:4;stroke-miterlimit:10;}
	.st10{fill:#2A5136;}
	.st11{font-family:'TimesNewRomanPSMT';}
	.st12{font-size:48px;}
	.st13{fill:#D19534;}
	.st14{fill:#FBD254;}
	.st15{font-size:36px;}
	.st16{fill:none;stroke:#FFE252;stroke-width:4;stroke-miterlimit:10;}
	.st17{fill:#7088E0;}
	.st18{fill:#60C17D;}
	.st19{fill:#F4F9F5;}
	.st20{fill:none;stroke:#262A3C;stroke-width:2;stroke-miterlimit:10;}
	.st21{fill:none;stroke:#83EC9B;stroke-width:3;stroke-miterlimit:10;}
	.st22{fill:#F9F9F9;}
	.st23{font-family:'Rockwell-ExtraBold';}
	.st24{font-size:20.2163px;}
	.st25{fill:#EDD95F;stroke:#FFFFFF;stroke-width:2;stroke-miterlimit:10;}
	.st26{fill:#EBA83B;}
</style>
<circle class="st0" cx="208.3" cy="192.5" r="148.3"/>
<polygon class="st1" points="148,152.2 108.3,152.2 87.3,131.6 5.3,131.6 61,304.7 148,305.7 "/>
<rect x="64.3" y="157.7" class="st2" width="115.3" height="142.3"/>
<polygon class="st1" points="108.9,179.4 183.9,179.4 184.6,302.6 62,302.6 "/>
<rect x="146.9" y="7.1" class="st3" width="179" height="266.3"/>
<g>
	<g>
		<path class="st4" d="M168,20h16v4.4h-10.7v4.7h3.2c4.9,0,9,1.7,9,6.9c0,5.4-3.9,7.4-8.9,7.4H168L168,20L168,20z M176.1,39.4
			c2.8,0,4.2-1,4.2-3.3c0-2.2-1.5-3-4.2-3h-2.8v6.3H176.1z"/>
		<path class="st4" d="M189.6,20h5.3v9h7v4.6h-7v9.8h-5.3V20z M198.8,31.6c0-7.7,3.9-12.1,10.2-12.1s10.3,4.4,10.3,12.1
			c0,7.7-4.1,12.3-10.3,12.3S198.8,39.3,198.8,31.6z M213.9,31.6c0-4.7-1.7-7.5-4.9-7.5c-3.2,0-4.9,2.8-4.9,7.5s1.7,7.7,4.9,7.7
			C212.2,39.3,213.9,36.3,213.9,31.6z"/>
		<path class="st4" d="M226.7,50.2h-4.7l-0.4-7.9V39h23.2v3.3l-0.4,7.9h-4.7v-6.8h-12.8L226.7,50.2L226.7,50.2z M236.5,24.4h-4.5
			c-0.5,2.8-0.7,4.3-1.3,7.1c-1.3,6.8-3.5,10.6-7.3,10.7l-0.8-3.3c1.1-0.4,2.2-2.4,3.4-8.1c0.8-4.1,1.2-6.4,1.9-10.9h13.9v21.8h-5.3
			L236.5,24.4L236.5,24.4z"/>
		<path class="st4" d="M253,29.2h5.2V20h5v9.2h5.2l7.8,14.2h-5.7l-4.9-10h-2.4v10h-5v-10h-2.4l-4.9,10h-5.7L253,29.2z M250,26.6
			c-0.8-1.7-1.6-2.1-2.6-2.1c-0.2,0-0.6,0-1,0.1l-0.9-4.8c0.5-0.2,1.3-0.3,1.9-0.3c2.7,0,4.6,1,6.2,4.2l3,6.3l-4.6,1L250,26.6z
			 M264.9,30.1l3-6.3c1.6-3.3,3.5-4.2,6.2-4.2c0.6,0,1.4,0.1,1.9,0.3l-0.9,4.8c-0.4-0.1-0.8-0.1-1-0.1c-1.1,0-1.8,0.4-2.6,2.1
			l-2,4.5L264.9,30.1z"/>
		<path class="st4" d="M279.2,20h14.7v4.4h-9.4v4.7h8v4.5h-8V39h9.8v4.5h-15.1L279.2,20L279.2,20z"/>
		<path class="st4" d="M303.5,24.4H297V20h18.2v4.4h-6.5v19h-5.3L303.5,24.4L303.5,24.4z"/>
	</g>
</g>
<path class="st5" d="M257.8,84.5h-93c-3,0-5.5-2.5-5.5-5.5V67.3c0-3,2.5-5.5,5.5-5.5h93c3,0,5.5,2.5,5.5,5.5V79
	C263.3,82,260.8,84.5,257.8,84.5z"/>
<path class="st5" d="M309.4,84.5h-17.5c-1.4,0-2.6-1.2-2.6-2.6V64.4c0-1.4,1.1-2.6,2.6-2.6h17.5c1.4,0,2.6,1.2,2.6,2.6v17.5
	C311.9,83.3,310.8,84.5,309.4,84.5z"/>
<path class="st5" d="M257.8,242h-93c-3,0-5.5-2.5-5.5-5.5v-11.7c0-3,2.5-5.5,5.5-5.5h93c3,0,5.5,2.5,5.5,5.5v11.7
	C263.3,239.5,260.8,242,257.8,242z"/>
<path class="st5" d="M307.9,242h-17.5c-1.4,0-2.6-1.1-2.6-2.6v-17.5c0-1.4,1.1-2.6,2.6-2.6h17.5c1.4,0,2.6,1.1,2.6,2.6v17.5
	C310.4,240.8,309.3,242,307.9,242z"/>
<path class="st5" d="M257.8,202.7h-93c-3,0-5.5-2.5-5.5-5.5v-11.7c0-3,2.5-5.5,5.5-5.5h93c3,0,5.5,2.5,5.5,5.5v11.7
	C263.3,200.3,260.8,202.7,257.8,202.7z"/>
<path class="st5" d="M307.9,202.1h-17.5c-1.4,0-2.6-1.1-2.6-2.6V182c0-1.4,1.1-2.6,2.6-2.6h17.5c1.4,0,2.6,1.1,2.6,2.6v17.5
	C310.4,200.9,309.3,202.1,307.9,202.1z"/>
<path class="st5" d="M257.8,162.9h-93c-3,0-5.5-2.5-5.5-5.5v-11.7c0-3,2.5-5.5,5.5-5.5h93c3,0,5.5,2.5,5.5,5.5v11.7
	C263.3,160.4,260.8,162.9,257.8,162.9z"/>
<path class="st5" d="M308.9,162.2h-17.5c-1.4,0-2.6-1.1-2.6-2.6v-17.5c0-1.4,1.1-2.6,2.6-2.6h17.5c1.4,0,2.6,1.1,2.6,2.6v17.5
	C311.4,161.1,310.3,162.2,308.9,162.2z"/>
<path class="st5" d="M258.6,123.7h-93c-3,0-5.5-2.5-5.5-5.5v-11.7c0-3,2.5-5.5,5.5-5.5h93c3,0,5.5,2.5,5.5,5.5v11.7
	C264.1,121.2,261.6,123.7,258.6,123.7z"/>
<path class="st5" d="M309.4,123.7h-17.5c-1.4,0-2.6-1.2-2.6-2.6v-17.5c0-1.4,1.1-2.6,2.6-2.6h17.5c1.4,0,2.6,1.2,2.6,2.6v17.5
	C311.9,122.5,310.8,123.7,309.4,123.7z"/>
<path class="st6" d="M53.2,269.4"/>
<g>
	<rect x="195.8" y="204.2" transform="matrix(0.5 -0.866 0.866 0.5 -106.7536 321.6747)" class="st7" width="58.8" height="98.2"/>
	<rect x="200.6" y="209.2" transform="matrix(0.5 -0.866 0.866 0.5 -106.855 321.7802)" class="st8" width="49.3" height="88.4"/>
	<circle class="st9" cx="197.7" cy="237.9" r="5.9"/>
	<circle class="st9" cx="251.9" cy="269.2" r="5.9"/>
	<text transform="matrix(0.866 0.5 -0.5 0.866 207.6051 261.5598)" class="st10 st11 st12">₽</text>
</g>
<g>
	<rect x="245.8" y="177" transform="matrix(0.866 -0.5 0.5 0.866 -76.1819 167.9031)" class="st7" width="58.8" height="98.2"/>
	<rect x="250.5" y="182" transform="matrix(0.866 -0.5 0.5 0.866 -76.26 167.9081)" class="st8" width="49.3" height="88.4"/>
	<ellipse transform="matrix(0.1602 -0.9871 0.9871 0.1602 21.1158 422.8386)" class="st9" cx="259.1" cy="199" rx="5.9" ry="5.9"/>
	<circle class="st9" cx="290.4" cy="253.3" r="5.9"/>
	<text transform="matrix(0.5 0.866 -0.866 0.5 255.8374 224.4714)" class="st10 st11 st12">₽</text>
</g>
<g>
	<g>
		<circle class="st13" cx="263.3" cy="257.5" r="24.2"/>
		<text transform="matrix(0.5 -0.866 0.866 0.5 270.2814 269.6692)" class="st14 st11 st15">₽</text>
	</g>
	<circle class="st16" cx="263.3" cy="257.5" r="18.9"/>
</g>
<path class="st17" d="M354.3,333.6h-94.2c-7.1,0-12.9-5.8-12.9-12.9v-60.4c0-7.1,5.8-12.9,12.9-12.9h94.2c7.1,0,12.9,5.8,12.9,12.9
	v60.4C367.2,327.9,361.4,333.6,354.3,333.6z"/>
<path class="st18" d="M347,271.8h-80.9c-4.8,0-8.7-3.9-8.7-8.7l0,0c0-4.8,3.9-8.7,8.7-8.7H347c4.8,0,8.7,3.9,8.7,8.7l0,0
	C355.6,268,351.7,271.8,347,271.8z"/>
<path class="st19" d="M272.6,299.6h-7.8c-4.1,0-7.4-3.3-7.4-7.4v-7.8c0-4.1,3.3-7.4,7.4-7.4h7.8c4.1,0,7.4,3.3,7.4,7.4v7.8
	C280,296.3,276.7,299.6,272.6,299.6z"/>
<path class="st19" d="M303.7,328.3H296c-4.1,0-7.4-3.3-7.4-7.4v-7.8c0-4.1,3.3-7.4,7.4-7.4h7.8c4.1,0,7.4,3.3,7.4,7.4v7.8
	C311.1,325,307.8,328.3,303.7,328.3z"/>
<path class="st19" d="M272.6,328.3h-7.8c-4.1,0-7.4-3.3-7.4-7.4v-7.8c0-4.1,3.3-7.4,7.4-7.4h7.8c4.1,0,7.4,3.3,7.4,7.4v7.8
	C280,325,276.7,328.3,272.6,328.3z"/>
<path class="st19" d="M303.7,299.6H296c-4.1,0-7.4-3.3-7.4-7.4v-7.8c0-4.1,3.3-7.4,7.4-7.4h7.8c4.1,0,7.4,3.3,7.4,7.4v7.8
	C311.1,296.3,307.8,299.6,303.7,299.6z"/>
<path class="st19" d="M342,328.3h-9.1c-5.6,0-10.1-4.5-10.1-10.1v-31.1c0-5.6,4.5-10.1,10.1-10.1h9.1c5.6,0,10.1,4.5,10.1,10.1v31.1
	C352.1,323.8,347.5,328.3,342,328.3z"/>
<line class="st20" x1="325.7" y1="299.6" x2="349.1" y2="299.6"/>
<line class="st20" x1="325.7" y1="305.7" x2="349.1" y2="305.7"/>
<line class="st20" x1="261.6" y1="288.3" x2="275.8" y2="288.3"/>
<line class="st20" x1="268.7" y1="295.4" x2="268.7" y2="281.2"/>
<line class="st20" x1="292.7" y1="288.3" x2="307" y2="288.3"/>
<line class="st20" x1="272.3" y1="323.1" x2="265.1" y2="310.8"/>
<line class="st20" x1="265.1" y1="323.1" x2="272.3" y2="310.8"/>
<line class="st20" x1="292.7" y1="317" x2="307" y2="317"/>
<line class="st20" x1="297.7" y1="313.6" x2="301.9" y2="313.6"/>
<line class="st20" x1="297.7" y1="320.4" x2="301.9" y2="320.4"/>
<line class="st21" x1="273.1" y1="255.8" x2="264.3" y2="270.5"/>
<line class="st21" x1="284.7" y1="255.8" x2="275.8" y2="270.5"/>
<line class="st21" x1="311" y1="256.2" x2="302.1" y2="270.9"/>
<line class="st21" x1="297.2" y1="256.2" x2="288.3" y2="270.9"/>
<text transform="matrix(0.9904 0 0 1 308.7667 269.7694)" class="st22 st23 st24">234</text>
<path class="st1" d="M127.1,447.3"/>
<path class="st25" d="M-86.8,505.4"/>
<polygon class="st26" points="61.9,300 184.6,300 184.6,306.2 60.6,306.3 "/>
</svg>
