<?xml version="1.0" encoding="utf-8"?>
<!-- Generator: Adobe Illustrator 26.4.1, SVG Export Plug-In . SVG Version: 6.00 Build 0)  -->
<svg version="1.1" id="Слой_1" xmlns="http://www.w3.org/2000/svg" xmlns:xlink="http://www.w3.org/1999/xlink" x="0px" y="0px"
	 viewBox="0 0 391 363" style="enable-background:new 0 0 391 363;" xml:space="preserve">
<style type="text/css">
	.st0{fill:#8E9DE7;}
	.st1{fill:#FFCA40;}
	.st2{fill:#FFFFFF;stroke:#FFFFFF;stroke-width:2;stroke-miterlimit:10;}
	.st3{fill:#FFFFFF;stroke:#BFBFBF;stroke-miterlimit:10;}
	.st4{fill:#B86543;}
	.st5{fill:#DEE0DD;}
	.st6{fill:#EBA83B;}
	.st7{fill:#3FC6FF;}
	.st8{fill:#8CC599;}
	.st9{fill:#8CC599;stroke:#407F55;stroke-width:3.9998;stroke-miterlimit:9.9996;}
	.st10{fill:#8CC599;stroke:#407F55;stroke-width:4;stroke-miterlimit:10;}
	.st11{fill:#2A5136;}
	.st12{font-family:'TimesNewRomanPSMT';}
	.st13{font-size:48px;}
	.st14{fill:#8CC599;stroke:#407F55;stroke-width:4.0001;stroke-miterlimit:10.0002;}
	.st15{fill:#D19534;}
	.st16{fill:#FBD254;}
	.st17{font-size:36px;}
	.st18{fill:none;stroke:#FFE252;stroke-width:4;stroke-miterlimit:10;}
	.st19{fill:#7088E0;}
	.st20{fill:#60C17D;}
	.st21{fill:#F4F9F5;}
	.st22{fill:none;stroke:#262A3C;stroke-width:2;stroke-miterlimit:10;}
	.st23{fill:none;stroke:#83EC9B;stroke-width:3;stroke-miterlimit:10;}
	.st24{fill:#F9F9F9;}
	.st25{font-family:'Rockwell-ExtraBold';}
	.st26{font-size:20.2163px;}
</style>
<circle class="st0" cx="196.5" cy="198.4" r="148.3"/>
<polygon class="st1" points="170.3,155.6 130.3,155.6 109.3,135 27,135 83,307.7 170.3,308.7 "/>
<rect x="85.6" y="166.7" class="st2" width="115.3" height="142.3"/>
<polygon class="st1" points="132.3,185.4 209.4,185.4 210,308.6 84.2,308.6 "/>
<rect x="135.2" y="13.1" class="st3" width="179" height="266.3"/>
<g>
	<g>
		<path class="st4" d="M156.2,26h16v4.4h-10.7v4.7h3.2c4.9,0,9,1.7,9,6.9c0,5.4-3.9,7.4-8.9,7.4h-8.6V26L156.2,26z M164.4,45.3
			c2.8,0,4.2-1,4.2-3.3c0-2.2-1.5-3-4.2-3h-2.8v6.3H164.4z"/>
		<path class="st4" d="M177.8,26h5.3v9h7v4.6h-7v9.8h-5.3V26z M187,37.6c0-7.7,3.9-12.1,10.2-12.1s10.3,4.4,10.3,12.1
			c0,7.7-4,12.3-10.3,12.3S187,45.3,187,37.6z M202.1,37.6c0-4.7-1.7-7.5-4.9-7.5s-4.9,2.8-4.9,7.5s1.7,7.7,4.9,7.7
			C200.4,45.3,202.1,42.3,202.1,37.6z"/>
		<path class="st4" d="M214.9,56.2h-4.7l-0.5-7.9V45h23.2v3.3l-0.4,7.9h-4.7v-6.8H215L214.9,56.2L214.9,56.2z M224.7,30.4h-4.5
			c-0.5,2.8-0.7,4.3-1.3,7.1c-1.3,6.8-3.5,10.6-7.3,10.7l-0.8-3.3c1-0.4,2.2-2.4,3.4-8.1c0.8-4.1,1.2-6.4,2-10.9h13.9v21.8h-5.3
			L224.7,30.4L224.7,30.4z"/>
		<path class="st4" d="M241.3,35.2h5.2V26h5v9.2h5.2l7.8,14.2h-5.7l-4.9-10h-2.4v10h-5v-10h-2.4l-4.9,10h-5.7L241.3,35.2z
			 M238.2,32.6c-0.8-1.7-1.6-2.1-2.6-2.1c-0.2,0-0.6,0-1,0.1l-0.9-4.8c0.5-0.2,1.3-0.3,1.9-0.3c2.7,0,4.6,1,6.2,4.2l3,6.3l-4.6,1.1
			L238.2,32.6z M253.2,36.1l3-6.3c1.6-3.3,3.5-4.2,6.2-4.2c0.6,0,1.4,0.1,1.9,0.3l-0.9,4.8c-0.4-0.1-0.8-0.1-1-0.1
			c-1.1,0-1.8,0.4-2.6,2.1l-2,4.5L253.2,36.1z"/>
		<path class="st4" d="M267.4,26h14.7v4.4h-9.4v4.7h8v4.5h-8V45h9.8v4.4h-15.1V26L267.4,26z"/>
		<path class="st4" d="M291.7,30.4h-6.5V26h18.2v4.4h-6.5v19h-5.3L291.7,30.4L291.7,30.4z"/>
	</g>
</g>
<path class="st5" d="M246,90.4h-93c-3,0-5.5-2.5-5.5-5.5V73.2c0-3,2.5-5.5,5.5-5.5h93c3,0,5.5,2.5,5.5,5.5v11.7
	C251.5,88,249.1,90.4,246,90.4z"/>
<path class="st5" d="M297.6,90.4h-17.5c-1.4,0-2.6-1.2-2.6-2.6V70.3c0-1.4,1.2-2.6,2.6-2.6h17.5c1.4,0,2.6,1.1,2.6,2.6v17.5
	C300.2,89.3,299,90.4,297.6,90.4z"/>
<path class="st5" d="M246,247.9h-93c-3,0-5.5-2.5-5.5-5.5v-11.7c0-3,2.5-5.5,5.5-5.5h93c3,0,5.5,2.5,5.5,5.5v11.7
	C251.5,245.5,249.1,247.9,246,247.9z"/>
<path class="st5" d="M296.1,247.9h-17.5c-1.4,0-2.6-1.1-2.6-2.6v-17.5c0-1.4,1.2-2.6,2.6-2.6h17.5c1.4,0,2.6,1.1,2.6,2.6v17.5
	C298.7,246.8,297.5,247.9,296.1,247.9z"/>
<path class="st5" d="M246,208.7h-93c-3,0-5.5-2.5-5.5-5.5v-11.7c0-3,2.5-5.5,5.5-5.5h93c3,0,5.5,2.5,5.5,5.5v11.7
	C251.5,206.3,249.1,208.7,246,208.7z"/>
<path class="st5" d="M296.1,208.1h-17.5c-1.4,0-2.6-1.1-2.6-2.6V188c0-1.4,1.2-2.6,2.6-2.6h17.5c1.4,0,2.6,1.1,2.6,2.6v17.5
	C298.7,206.9,297.5,208.1,296.1,208.1z"/>
<path class="st5" d="M246,168.8h-93c-3,0-5.5-2.5-5.5-5.5v-11.7c0-3,2.5-5.5,5.5-5.5h93c3,0,5.5,2.5,5.5,5.5v11.7
	C251.5,166.4,249.1,168.8,246,168.8z"/>
<path class="st5" d="M297.1,168.2h-17.5c-1.4,0-2.6-1.1-2.6-2.6v-17.5c0-1.4,1.2-2.6,2.6-2.6h17.5c1.4,0,2.6,1.1,2.6,2.6v17.5
	C299.7,167,298.5,168.2,297.1,168.2z"/>
<path class="st5" d="M246.8,129.6h-93c-3,0-5.5-2.5-5.5-5.5v-11.7c0-3,2.5-5.5,5.5-5.5h93c3,0,5.5,2.5,5.5,5.5v11.7
	C252.3,127.2,249.9,129.6,246.8,129.6z"/>
<polygon class="st6" points="84.1,305 206.8,305 206.9,311.1 82.8,311.3 "/>
<path class="st5" d="M297.6,129.6h-17.5c-1.4,0-2.6-1.1-2.6-2.6v-17.5c0-1.4,1.2-2.6,2.6-2.6h17.5c1.4,0,2.6,1.2,2.6,2.6V127
	C300.2,128.5,299,129.6,297.6,129.6z"/>
<path class="st7" d="M41.5,275.3"/>
<g>
	
		<rect x="185" y="242.2" transform="matrix(0.3788 -0.9255 0.9255 0.3788 -136.3452 379.3876)" class="st8" width="58.8" height="98.2"/>
	
		<rect x="189.8" y="247.3" transform="matrix(0.3788 -0.9255 0.9255 0.3788 -136.5404 379.5016)" class="st9" width="49.3" height="88.4"/>
	<ellipse transform="matrix(0.9909 -0.1347 0.1347 0.9909 -35.9964 27.4732)" class="st10" cx="185" cy="279.8" rx="5.9" ry="5.9"/>
	<ellipse transform="matrix(0.9909 -0.1347 0.1347 0.9909 -38.66 35.5042)" class="st10" cx="243.1" cy="303.5" rx="5.9" ry="5.9"/>
	<text transform="matrix(0.9255 0.3788 -0.3788 0.9255 198.0816 301.8506)" class="st11 st12 st13">₽</text>
</g>
<g>
	<rect x="226" y="204" transform="matrix(0.866 -0.5 0.5 0.866 -92.3223 161.6311)" class="st8" width="58.8" height="98.2"/>
	<rect x="230.7" y="209" transform="matrix(0.866 -0.5 0.5 0.866 -92.3901 161.611)" class="st9" width="49.3" height="88.4"/>
	
		<ellipse transform="matrix(0.1602 -0.9871 0.9871 0.1602 -22.1284 425.9804)" class="st14" cx="239.3" cy="226" rx="5.9" ry="5.9"/>
	<circle class="st10" cx="270.6" cy="280.3" r="5.9"/>
	<text transform="matrix(0.5 0.866 -0.866 0.5 236.0375 251.4625)" class="st11 st12 st13">₽</text>
</g>
<g>
	<g>
		<circle class="st15" cx="233.5" cy="262.4" r="24.2"/>
		<text transform="matrix(0.5 -0.866 0.866 0.5 240.4808 274.6601)" class="st16 st12 st17">₽</text>
	</g>
	<circle class="st18" cx="233.5" cy="262.4" r="18.9"/>
</g>
<path class="st19" d="M342.5,339.6h-94.2c-7.1,0-12.9-5.8-12.9-12.9v-60.4c0-7.1,5.8-12.9,12.9-12.9h94.2c7.1,0,12.9,5.8,12.9,12.9
	v60.4C355.4,333.8,349.6,339.6,342.5,339.6z"/>
<path class="st20" d="M335.2,277.8h-80.9c-4.8,0-8.7-3.9-8.7-8.7l0,0c0-4.8,3.9-8.7,8.7-8.7h80.9c4.8,0,8.7,3.9,8.7,8.7l0,0
	C343.9,273.9,340,277.8,335.2,277.8z"/>
<path class="st21" d="M260.8,305.6H253c-4.1,0-7.4-3.3-7.4-7.4v-7.8c0-4.1,3.3-7.4,7.4-7.4h7.8c4.1,0,7.4,3.3,7.4,7.4v7.8
	C268.2,302.2,264.9,305.6,260.8,305.6z"/>
<path class="st21" d="M292,334.3h-7.8c-4.1,0-7.4-3.3-7.4-7.4v-7.8c0-4.1,3.3-7.4,7.4-7.4h7.8c4.1,0,7.4,3.3,7.4,7.4v7.8
	C299.4,330.9,296.1,334.3,292,334.3z"/>
<path class="st21" d="M260.8,334.3H253c-4.1,0-7.4-3.3-7.4-7.4v-7.8c0-4.1,3.3-7.4,7.4-7.4h7.8c4.1,0,7.4,3.3,7.4,7.4v7.8
	C268.2,330.9,264.9,334.3,260.8,334.3z"/>
<path class="st21" d="M292,305.6h-7.8c-4.1,0-7.4-3.3-7.4-7.4v-7.8c0-4.1,3.3-7.4,7.4-7.4h7.8c4.1,0,7.4,3.3,7.4,7.4v7.8
	C299.4,302.2,296.1,305.6,292,305.6z"/>
<path class="st21" d="M330.2,334.3h-9.1c-5.6,0-10.1-4.5-10.1-10.1v-31.1c0-5.6,4.5-10.1,10.1-10.1h9.1c5.6,0,10.1,4.5,10.1,10.1
	v31.1C340.3,329.7,335.8,334.3,330.2,334.3z"/>
<line class="st22" x1="314" y1="305.6" x2="337.3" y2="305.6"/>
<line class="st22" x1="314" y1="311.7" x2="337.3" y2="311.7"/>
<line class="st22" x1="249.8" y1="294.3" x2="264.1" y2="294.3"/>
<line class="st22" x1="256.9" y1="301.4" x2="256.9" y2="287.2"/>
<line class="st22" x1="281" y1="294.3" x2="295.2" y2="294.3"/>
<line class="st22" x1="260.5" y1="329.1" x2="253.4" y2="316.8"/>
<line class="st22" x1="253.4" y1="329.1" x2="260.5" y2="316.8"/>
<line class="st22" x1="281" y1="323" x2="295.2" y2="323"/>
<line class="st22" x1="286" y1="319.6" x2="290.2" y2="319.6"/>
<line class="st22" x1="286" y1="326.3" x2="290.2" y2="326.3"/>
<line class="st23" x1="261.4" y1="261.8" x2="252.5" y2="276.5"/>
<line class="st23" x1="272.9" y1="261.8" x2="264.1" y2="276.5"/>
<line class="st23" x1="299.2" y1="262.1" x2="290.3" y2="276.9"/>
<line class="st23" x1="285.4" y1="262.1" x2="276.5" y2="276.9"/>
<text transform="matrix(0.9904 0 0 1 296.9663 275.7608)" class="st24 st25 st26">234</text>
</svg>
