<?xml version="1.0" encoding="utf-8"?>
<!-- Generator: Adobe Illustrator 26.4.1, SVG Export Plug-In . SVG Version: 6.00 Build 0)  -->
<!DOCTYPE svg PUBLIC "-//W3C//DTD SVG 1.1//EN" "http://www.w3.org/Graphics/SVG/1.1/DTD/svg11.dtd" [
	<!ENTITY ns_extend "http://ns.adobe.com/Extensibility/1.0/">
	<!ENTITY ns_ai "http://ns.adobe.com/AdobeIllustrator/10.0/">
	<!ENTITY ns_graphs "http://ns.adobe.com/Graphs/1.0/">
	<!ENTITY ns_vars "http://ns.adobe.com/Variables/1.0/">
	<!ENTITY ns_imrep "http://ns.adobe.com/ImageReplacement/1.0/">
	<!ENTITY ns_sfw "http://ns.adobe.com/SaveForWeb/1.0/">
	<!ENTITY ns_custom "http://ns.adobe.com/GenericCustomNamespace/1.0/">
	<!ENTITY ns_adobe_xpath "http://ns.adobe.com/XPath/1.0/">
	<!ENTITY st0 "clip-path:url(#SVGID_00000015340330877096673650000000381708960960448395_);">
	
		<!ENTITY st1 "clip-path:url(#SVGID_00000083065199118349117200000005954636608461256620_);fill:url(#SVGID_00000095304458930293633430000015434382641339019162_);">
	
		<!ENTITY st2 "opacity:0.14;clip-path:url(#SVGID_00000015340330877096673650000000381708960960448395_);fill:none;stroke:#658FE2;stroke-width:26;stroke-miterlimit:10;enable-background:new    ;">
	<!ENTITY st3 "opacity:0.66;clip-path:url(#SVGID_00000015340330877096673650000000381708960960448395_);">
	<!ENTITY st4 "fill:none;stroke:#7E8FE2;stroke-width:4;stroke-miterlimit:10;">
	
		<!ENTITY st5 "opacity:0.17;clip-path:url(#SVGID_00000015340330877096673650000000381708960960448395_);fill:none;stroke:#0000FF;stroke-width:2;stroke-miterlimit:10;enable-background:new    ;">
	<!ENTITY st6 "opacity:0.15;clip-path:url(#SVGID_00000015340330877096673650000000381708960960448395_);">
	<!ENTITY st7 "fill:none;stroke:#0000FF;stroke-width:18;stroke-miterlimit:10;">
	
		<!ENTITY st8 "opacity:0.12;clip-path:url(#SVGID_00000015340330877096673650000000381708960960448395_);fill:none;stroke:#0000FF;stroke-width:31;stroke-miterlimit:10;enable-background:new    ;">
	
		<!ENTITY st9 "opacity:0.13;clip-path:url(#SVGID_00000015340330877096673650000000381708960960448395_);fill:none;stroke:#0000FF;stroke-width:16;stroke-miterlimit:10;enable-background:new    ;">
	
		<!ENTITY st10 "opacity:0.11;clip-path:url(#SVGID_00000015340330877096673650000000381708960960448395_);fill:none;stroke:#0000FF;stroke-width:6;stroke-miterlimit:10;enable-background:new    ;">
	<!ENTITY st11 "opacity:0.33;clip-path:url(#SVGID_00000015340330877096673650000000381708960960448395_);">
	<!ENTITY st12 "fill:none;stroke:#0000FF;stroke-width:2;stroke-miterlimit:10;">
	<!ENTITY st13 "opacity:0.11;clip-path:url(#SVGID_00000015340330877096673650000000381708960960448395_);">
	<!ENTITY st14 "opacity:0.1;clip-path:url(#SVGID_00000015340330877096673650000000381708960960448395_);">
	<!ENTITY st15 "fill:none;stroke:#0000FF;stroke-width:12;stroke-miterlimit:10;">
	<!ENTITY st16 "opacity:0.35;clip-path:url(#SVGID_00000015340330877096673650000000381708960960448395_);">
	
		<!ENTITY st17 "opacity:6.000000e-02;clip-path:url(#SVGID_00000015340330877096673650000000381708960960448395_);fill:none;stroke:#0000FF;stroke-width:80;stroke-miterlimit:10;enable-background:new    ;">
	<!ENTITY st18 "opacity:7.000000e-02;clip-path:url(#SVGID_00000015340330877096673650000000381708960960448395_);">
	<!ENTITY st19 "opacity:0.11;">
	<!ENTITY st20 "fill:#0000FF;">
	<!ENTITY st21 "opacity:0.17;fill:none;stroke:#0000FF;stroke-width:5;stroke-miterlimit:10;enable-background:new    ;">
	<!ENTITY st22 "opacity:0.12;fill:none;stroke:#0000FF;stroke-width:5;stroke-miterlimit:10;enable-background:new    ;">
	
		<!ENTITY st23 "opacity:0.17;clip-path:url(#SVGID_00000015340330877096673650000000381708960960448395_);fill:none;stroke:#0000FF;stroke-width:3;stroke-miterlimit:10;enable-background:new    ;">
	
		<!ENTITY st24 "opacity:0.12;clip-path:url(#SVGID_00000015340330877096673650000000381708960960448395_);fill:none;stroke:#0000FF;stroke-width:3;stroke-miterlimit:10;enable-background:new    ;">
	
		<!ENTITY st25 "opacity:5.000000e-02;clip-path:url(#SVGID_00000015340330877096673650000000381708960960448395_);fill:#9FCFFF;stroke:#0000FF;stroke-width:62;stroke-miterlimit:10;enable-background:new    ;">
	
		<!ENTITY st26 "opacity:0.2;clip-path:url(#SVGID_00000015340330877096673650000000381708960960448395_);fill:none;stroke:#0000FF;stroke-width:2;stroke-miterlimit:10;enable-background:new    ;">
]>
<svg version="1.1" id="Слой_1" xmlns:x="&ns_extend;" xmlns:i="&ns_ai;" xmlns:graph="&ns_graphs;"
	 xmlns="http://www.w3.org/2000/svg" xmlns:xlink="http://www.w3.org/1999/xlink" x="0px" y="0px" viewBox="0 0 1920 1080"
	 style="enable-background:new 0 0 1920 1080;" xml:space="preserve">
<metadata>
	<sfw  xmlns="&ns_sfw;">
		<slices></slices>
		<sliceSourceBounds  bottomLeftOrigin="true" height="1320" width="2193.6" x="-102.4" y="-85.4"></sliceSourceBounds>
	</sfw>
</metadata>
<g>
	<defs>
		<rect id="SVGID_1_" x="1" y="1" width="1918" height="1078"/>
	</defs>
	<clipPath id="SVGID_00000056403244111253047920000013495594856905055412_">
		<use xlink:href="#SVGID_1_"  style="overflow:visible;"/>
	</clipPath>
	<g style="clip-path:url(#SVGID_00000056403244111253047920000013495594856905055412_);">
		<defs>
			<path id="SVGID_00000136385660057148158250000011673649306137039266_" d="M1919,1v1078H1V1H1919 M1920,0H0v1080h1920V0L1920,0z"
				/>
		</defs>
		<clipPath id="SVGID_00000078748513152117344480000017185823864263068565_">
			<use xlink:href="#SVGID_00000136385660057148158250000011673649306137039266_"  style="overflow:visible;"/>
		</clipPath>
		
			<linearGradient id="SVGID_00000173849303662572711640000008237191819956866435_" gradientUnits="userSpaceOnUse" x1="0.5" y1="540" x2="1919.5" y2="540" gradientTransform="matrix(1 0 0 -1 0 1080)">
			<stop  offset="0.1788" style="stop-color:#8E9DE7"/>
			<stop  offset="0.3245" style="stop-color:#93A1E8"/>
			<stop  offset="0.4988" style="stop-color:#A2AEE9"/>
			<stop  offset="0.6877" style="stop-color:#BAC2EC"/>
			<stop  offset="0.8857" style="stop-color:#DBDFEF"/>
			<stop  offset="1" style="stop-color:#F2F2F2"/>
		</linearGradient>
		
			<rect x="0.5" y="0.5" style="clip-path:url(#SVGID_00000078748513152117344480000017185823864263068565_);fill:url(#SVGID_00000173849303662572711640000008237191819956866435_);" width="1919" height="1079"/>
	</g>
	
		<circle style="opacity:0.14;clip-path:url(#SVGID_00000056403244111253047920000013495594856905055412_);fill:none;stroke:#658FE2;stroke-width:26;stroke-miterlimit:10;enable-background:new    ;" cx="711.4" cy="268.2" r="103.7"/>
	<g style="opacity:0.66;clip-path:url(#SVGID_00000056403244111253047920000013495594856905055412_);">
		<circle style="&st4;" cx="635.2" cy="131.4" r="159.4"/>
	</g>
	
		<polyline style="opacity:0.17;clip-path:url(#SVGID_00000056403244111253047920000013495594856905055412_);fill:none;stroke:#0000FF;stroke-width:2;stroke-miterlimit:10;enable-background:new    ;" points="
		0,245.6 155,652 175.8,604.6 190.1,633.3 287.5,421.4 361.5,559.7 475.8,316.6 591.4,629.5 704.3,433.8 736.8,479.9 822.5,360.3 
		831.6,376.5 1060.2,0 	"/>
	<g style="opacity:0.15;clip-path:url(#SVGID_00000056403244111253047920000013495594856905055412_);">
		<path style="&st7;" d="M635.2,131.4l-66.5-145L635.2,131.4z"/>
		<path style="&st7;" d="M787.6,178.3c-52.6-17.3-105.2-34.6-157.8-52"/>
	</g>
	
		<circle style="opacity:0.12;clip-path:url(#SVGID_00000056403244111253047920000013495594856905055412_);fill:none;stroke:#0000FF;stroke-width:31;stroke-miterlimit:10;enable-background:new    ;" cx="101.4" cy="961.6" r="188.3"/>
	
		<circle style="opacity:0.13;clip-path:url(#SVGID_00000056403244111253047920000013495594856905055412_);fill:none;stroke:#0000FF;stroke-width:16;stroke-miterlimit:10;enable-background:new    ;" cx="487.1" cy="931.5" r="81.5"/>
	
		<circle style="opacity:0.11;clip-path:url(#SVGID_00000056403244111253047920000013495594856905055412_);fill:none;stroke:#0000FF;stroke-width:6;stroke-miterlimit:10;enable-background:new    ;" cx="273.7" cy="722.4" r="45.1"/>
	<g style="opacity:0.33;clip-path:url(#SVGID_00000056403244111253047920000013495594856905055412_);">
		<circle style="&st12;" cx="104.5" cy="157.9" r="3"/>
		<circle style="&st12;" cx="173.4" cy="157.9" r="3"/>
		<circle style="&st12;" cx="118" cy="157.9" r="3"/>
		<circle style="&st12;" cx="159.8" cy="157.9" r="3"/>
		<circle style="&st12;" cx="145.7" cy="157.9" r="3"/>
		<circle style="&st12;" cx="132" cy="157.9" r="3"/>
	</g>
	<g style="opacity:0.11;clip-path:url(#SVGID_00000056403244111253047920000013495594856905055412_);">
		<circle style="&st12;" cx="644.4" cy="1024.8" r="3"/>
		<circle style="&st12;" cx="713.3" cy="1024.8" r="3"/>
		<circle style="&st12;" cx="657.9" cy="1024.8" r="3"/>
		<circle style="&st12;" cx="699.7" cy="1024.8" r="3"/>
		<circle style="&st12;" cx="685.6" cy="1024.8" r="3"/>
		<circle style="&st12;" cx="671.9" cy="1024.8" r="3"/>
	</g>
	<g style="opacity:0.1;clip-path:url(#SVGID_00000056403244111253047920000013495594856905055412_);">
		<line style="&st15;" x1="934.1" y1="1080" x2="934.1" y2="641.3"/>
		<line style="&st15;" x1="1062.8" y1="1080" x2="1062.8" y2="860.6"/>
		<line style="&st15;" x1="1202.2" y1="1080" x2="1202.2" y2="785.3"/>
		<line style="&st15;" x1="1338.5" y1="1080" x2="1338.5" y2="932.6"/>
		<line style="&st15;" x1="1455" y1="1080" x2="1455" y2="711.7"/>
	</g>
	<g style="opacity:0.35;clip-path:url(#SVGID_00000056403244111253047920000013495594856905055412_);">
		<circle style="&st12;" cx="1021.4" cy="241.4" r="3"/>
		<circle style="&st12;" cx="1090.3" cy="241.4" r="3"/>
		<circle style="&st12;" cx="1035" cy="241.4" r="3"/>
		<circle style="&st12;" cx="1076.7" cy="241.4" r="3"/>
		<circle style="&st12;" cx="1062.6" cy="241.4" r="3"/>
		<circle style="&st12;" cx="1049" cy="241.4" r="3"/>
	</g>
	
		<polyline style="opacity:6.000000e-02;clip-path:url(#SVGID_00000056403244111253047920000013495594856905055412_);fill:none;stroke:#0000FF;stroke-width:80;stroke-miterlimit:10;enable-background:new    ;" points="
		-73.9,1117.7 647.4,658.1 852.9,918.7 1490.2,244.5 1586.7,345.3 2063.1,-126.2 	"/>
	<g style="opacity:7.000000e-02;clip-path:url(#SVGID_00000056403244111253047920000013495594856905055412_);">
		<circle style="&st12;" cx="224.9" cy="202.2" r="3.1"/>
		<circle style="&st12;" cx="295.2" cy="202.2" r="3.1"/>
		<circle style="&st12;" cx="238.7" cy="202.2" r="3.1"/>
		<circle style="&st12;" cx="281.4" cy="202.2" r="3.1"/>
		<circle style="&st12;" cx="267" cy="202.2" r="3.1"/>
		<circle style="&st12;" cx="253" cy="202.2" r="3.1"/>
	</g>
	<g style="clip-path:url(#SVGID_00000056403244111253047920000013495594856905055412_);">
		<g style="&st19;">
			<path style="&st20;" d="M1062.6,407.1h41.5v12h-41.5V407.1z M1062.6,428.5h41.5v12h-41.5V428.5z M1073.3,364h12.7v90.2h-12.7V364
				z M1079.8,407.1h28.8c2.7,0,5.1-0.6,7.2-1.9s3.7-3.1,4.8-5.5c1.1-2.4,1.7-5.1,1.7-8.1c0-3.1-0.6-5.8-1.7-8.2
				c-1.1-2.4-2.7-4.2-4.8-5.5c-2.1-1.3-4.5-2-7.2-2h-28.8v-12h28.4c5.4,0,10.1,1.1,14.2,3.4s7.3,5.5,9.5,9.7c2.3,4.2,3.4,9,3.4,14.5
				s-1.1,10.3-3.4,14.5s-5.4,7.4-9.5,9.6c-4.1,2.3-8.8,3.4-14.2,3.4h-28.4V407.1z"/>
		</g>
	</g>
	<g style="clip-path:url(#SVGID_00000056403244111253047920000013495594856905055412_);">
		<g style="&st19;">
			<path style="&st20;" d="M1753.6,939.9h30.8v8.9h-30.8V939.9z M1753.6,955.7h30.8v8.9h-30.8V955.7z M1761.5,907.9h9.4v66.7h-9.4
				V907.9z M1766.4,939.9h21.3c2,0,3.8-0.5,5.3-1.4s2.7-2.3,3.6-4c0.8-1.7,1.3-3.7,1.3-6s-0.4-4.3-1.3-6.1c-0.8-1.7-2-3.1-3.6-4.1
				c-1.5-1-3.3-1.4-5.3-1.4h-21.3V908h21c4,0,7.5,0.8,10.5,2.5s5.4,4.1,7,7.2c1.7,3.1,2.5,6.7,2.5,10.7s-0.8,7.6-2.5,10.7
				c-1.7,3.1-4,5.5-7,7.1s-6.5,2.5-10.5,2.5h-21V939.9z"/>
		</g>
	</g>
	<g style="clip-path:url(#SVGID_00000056403244111253047920000013495594856905055412_);">
		<circle style="&st21;" cx="1669.1" cy="532.2" r="71.7"/>
		<g>
			<g style="&st19;">
				<path style="&st20;" d="M1643.9,538h33.4v7.3h-33.4V538z M1643.9,557.1h33.4v5.7h-33.4V557.1z M1653.4,496.6h7.9v79.5h-7.9
					V496.6z M1659.1,538h25.4c3.1,0,5.8-0.7,8.2-2.1c2.4-1.4,4.2-3.4,5.5-6s1.9-5.5,1.9-8.9s-0.6-6.4-1.9-8.9
					c-1.3-2.6-3.1-4.6-5.5-6s-5.1-2.1-8.2-2.1h-25.4v-7.3h25c4.7,0,8.9,1,12.5,3s6.4,4.9,8.4,8.6s3,7.9,3,12.8c0,4.8-1,9.1-3,12.7
					c-2,3.7-4.8,6.5-8.4,8.5s-7.8,3-12.5,3h-25V538z"/>
			</g>
		</g>
		<circle style="&st22;" cx="1669.1" cy="532.2" r="63.4"/>
	</g>
	
		<circle style="opacity:0.17;clip-path:url(#SVGID_00000056403244111253047920000013495594856905055412_);fill:none;stroke:#0000FF;stroke-width:3;stroke-miterlimit:10;enable-background:new    ;" cx="241.9" cy="126.4" r="37.6"/>
	<g style="clip-path:url(#SVGID_00000056403244111253047920000013495594856905055412_);">
		<g style="&st19;">
			<path style="&st20;" d="M228.6,129.4h17.5v3.8h-17.5V129.4z M228.6,139.5h17.5v3h-17.5V139.5z M233.6,107.7h4.1v41.8h-4.1V107.7z
				 M236.6,129.4H250c1.6,0,3.1-0.4,4.3-1.1c1.2-0.7,2.2-1.8,2.9-3.1s1-2.9,1-4.7c0-1.8-0.3-3.3-1-4.7s-1.6-2.4-2.9-3.1
				c-1.2-0.7-2.7-1.1-4.3-1.1h-13.4v-3.8h13.2c2.5,0,4.7,0.5,6.6,1.6c1.9,1.1,3.4,2.6,4.4,4.5s1.6,4.2,1.6,6.7s-0.5,4.8-1.6,6.7
				c-1,1.9-2.5,3.4-4.4,4.5s-4.1,1.6-6.6,1.6h-13.2L236.6,129.4L236.6,129.4z"/>
		</g>
	</g>
	
		<circle style="opacity:0.12;clip-path:url(#SVGID_00000056403244111253047920000013495594856905055412_);fill:none;stroke:#0000FF;stroke-width:3;stroke-miterlimit:10;enable-background:new    ;" cx="241.9" cy="126.4" r="30.8"/>
	
		<path style="opacity:5.000000e-02;clip-path:url(#SVGID_00000056403244111253047920000013495594856905055412_);fill:#9FCFFF;stroke:#0000FF;stroke-width:62;stroke-miterlimit:10;enable-background:new    ;" d="
		M1016.8,1139.1c85.3-66.4,170.6-132.8,255.8-199.1l223.7,66.3c151.1-146.2,302.3-292.4,453.4-438.6"/>
	
		<polyline style="opacity:0.2;clip-path:url(#SVGID_00000056403244111253047920000013495594856905055412_);fill:none;stroke:#0000FF;stroke-width:2;stroke-miterlimit:10;enable-background:new    ;" points="
		1441.1,116.8 1498.5,92.6 1476.7,146.9 	"/>
	
		<line style="opacity:0.2;clip-path:url(#SVGID_00000056403244111253047920000013495594856905055412_);fill:none;stroke:#0000FF;stroke-width:2;stroke-miterlimit:10;enable-background:new    ;" x1="1240.4" y1="350.9" x2="1496.7" y2="94.4"/>
</g>
</svg>
