<?xml version="1.0" encoding="utf-8"?>
<!-- Generator: Adobe Illustrator 26.4.1, SVG Export Plug-In . SVG Version: 6.00 Build 0)  -->
<!DOCTYPE svg PUBLIC "-//W3C//DTD SVG 1.1//EN" "http://www.w3.org/Graphics/SVG/1.1/DTD/svg11.dtd" [
	<!ENTITY ns_extend "http://ns.adobe.com/Extensibility/1.0/">
	<!ENTITY ns_ai "http://ns.adobe.com/AdobeIllustrator/10.0/">
	<!ENTITY ns_graphs "http://ns.adobe.com/Graphs/1.0/">
	<!ENTITY ns_vars "http://ns.adobe.com/Variables/1.0/">
	<!ENTITY ns_imrep "http://ns.adobe.com/ImageReplacement/1.0/">
	<!ENTITY ns_sfw "http://ns.adobe.com/SaveForWeb/1.0/">
	<!ENTITY ns_custom "http://ns.adobe.com/GenericCustomNamespace/1.0/">
	<!ENTITY ns_adobe_xpath "http://ns.adobe.com/XPath/1.0/">
	<!ENTITY st0 "fill:none;stroke:#67ADE0;stroke-width:6;stroke-miterlimit:10;">
	<!ENTITY st1 "fill:none;stroke:#67ADE0;stroke-width:2;stroke-miterlimit:10;">
	<!ENTITY st2 "fill:none;stroke:#E7D200;stroke-width:6;stroke-miterlimit:10;">
	<!ENTITY st3 "fill:#354898;">
	<!ENTITY st4 "fill:#E7D200;">
]>
<svg version="1.1" id="Слой_1" xmlnsX="&ns_extend;" xmlnsI="&ns_ai;" xmlnsGraph="&ns_graphs;"
	 xmlns="http://www.w3.org/2000/svg" xmlnsXlink="http://www.w3.org/1999/xlink" x="0px" y="0px" viewBox="0 0 266.9 275.4"
	 style="enable-background:new 0 0 266.9 275.4;" xmlSpace="preserve">
<metadata>
	<sfw  xmlns="&ns_sfw;">
		<slices></slices>
		<sliceSourceBounds  bottomLeftOrigin="true" height="283.5" width="264.2" x="178.5" y="-580"></sliceSourceBounds>
	</sfw>
</metadata>
<path style="&st0;" d="M75,177.2c-18.3-11.6-36.6-23.1-54.9-34.7c-5.3-2.5-11.5-0.6-14.3,3.8c-2.3,3.7-2.1,8.7,0.7,12.5
	c27.5,20.2,55,40.4,82.5,60.5c32.2-2.6,64.3-5.3,96.5-7.9l22.8-5.3l-13.2-55.3L173.2,136l-74.6,22.8c-4.1,2.4-6.5,6.6-6,10.5
	c0.7,5.4,7.3,10.1,14.8,8.4c18.1-5.4,36.3-10.8,54.4-16.2"/>
<path style="&st0;" d="M22.5,144c-3.7-6.9-1.6-14.8,3.5-17.9c5.3-3.2,11.6,0.1,12,0.3c12.9,11.7,25.9,23.3,38.8,35"/>
<path style="&st0;" d="M56.6,143.2c-2.2-6.3,0-12.7,4.6-15.3c4.2-2.4,9-0.6,9.7-0.3c5.4,5.5,10.7,11.1,16.1,16.6"/>
<rect x="203.7" y="127.1" transform="matrix(0.9752 -0.2211 0.2211 0.9752 -31.4083 54.6921)" style="&st0;" width="49.8" height="80.9"/>
<circle style="&st1;" cx="235" cy="196" r="4.2"/>
<circle style="&st2;" cx="135.5" cy="64.9" r="59.9"/>
<g>
	<g>
		<path style="&st3;" d="M46.6,230.5h4.8V266h-4.8V230.5z M49.2,261.5h9.1c0.9,0,1.6-0.2,2.3-0.6c0.6-0.4,1.1-0.9,1.5-1.6
			c0.3-0.7,0.5-1.6,0.5-2.6v-2.5c0-1-0.2-1.9-0.5-2.6c-0.3-0.7-0.8-1.3-1.5-1.7c-0.6-0.4-1.4-0.6-2.3-0.6h-9.1v-4.6h8.9
			c2,0,3.6,0.4,5,1.1c1.4,0.7,2.4,1.8,3.2,3.2c0.7,1.4,1.1,3.1,1.1,5.1v2.6c0,2-0.4,3.6-1.1,5c-0.7,1.4-1.8,2.4-3.2,3.2
			c-1.4,0.7-3.1,1.1-5,1.1h-8.9V261.5z M49.4,230.5H65v4.6H49.4V230.5z"/>
		<path style="&st3;" d="M124.1,261.5h25.6v4.6h-25.6V261.5z M124.1,261.5h4.8v11.9h-4.8V261.5z M124.5,261.5h0.4
			c1.6,0,2.8-0.7,3.6-2.1c0.9-1.4,1.3-3.4,1.3-6v-22.9h4.8v23.3c0,2.3-0.4,4.2-1.1,5.8s-1.8,2.8-3.2,3.7c-1.4,0.8-3,1.3-5,1.3h-0.9
			V261.5z M132.9,230.5h12.6v4.6h-12.6V230.5z M143.3,230.5h4.8V266h-4.8V230.5z M147.5,261.5h4.8v11.9h-4.8V261.5z"/>
		<path style="&st3;" d="M210.6,230.5h4.8V266h-4.8V230.5z M213.3,230.5h13.6v4.6h-13.6V230.5z"/>
	</g>
</g>
<g>
	<g>
		<path style="&st4;" d="M107.9,67.8h31.9v7h-31.9V67.8z M107.9,86h31.9v5.4h-31.9V86z M116.9,28.3h7.5v76h-7.5V28.3z M122.4,67.8
			h24.3c3,0,5.6-0.7,7.8-2c2.3-1.4,4-3.3,5.2-5.7c1.2-2.4,1.9-5.3,1.9-8.5c0-3.2-0.6-6.1-1.9-8.5c-1.2-2.5-3-4.4-5.2-5.7
			c-2.3-1.4-4.9-2-7.8-2h-24.3v-7h23.9c4.5,0,8.5,1,12,2.9c3.4,1.9,6.1,4.7,8,8.2c1.9,3.5,2.8,7.6,2.8,12.2c0,4.6-0.9,8.6-2.8,12.1
			c-1.9,3.5-4.6,6.2-8,8.2c-3.4,1.9-7.4,2.9-12,2.9h-23.9V67.8z"/>
	</g>
</g>
</svg>
