<?xml version="1.0" encoding="utf-8"?>
<!-- Generator: Adobe Illustrator 26.4.1, SVG Export Plug-In . SVG Version: 6.00 Build 0)  -->
<svg version="1.1" id="Слой_1" xmlns="http://www.w3.org/2000/svg" xmlns:xlink="http://www.w3.org/1999/xlink" x="0px" y="0px"
	 viewBox="0 0 340.5 345" style="enable-background:new 0 0 340.5 345;" xml:space="preserve">
<style type="text/css">
	.st0{fill:#8E9DE7;stroke:#FFFFFF;stroke-width:6.9999;stroke-miterlimit:9.9999;}
	.st1{fill:#FFFFFF;}
	.st2{fill:#E0A887;}
	.st3{fill:#85DF81;}
	.st4{fill:#FFFFFF;stroke:#FFFFFF;stroke-miterlimit:10;}
	.st5{fill:none;}
	.st6{font-family:'MyriadPro-Regular';}
	.st7{font-size:22px;}
	.st8{font-size:21px;}
</style>
<ellipse transform="matrix(0.7071 -0.7071 0.7071 0.7071 -72.4644 170.3774)" class="st0" cx="169.4" cy="172.7" rx="148.3" ry="148.3"/>
<circle class="st1" cx="111.9" cy="186.3" r="16.9"/>
<circle class="st1" cx="230.1" cy="190.2" r="16.1"/>
<path class="st2" d="M199.8,234.4v19.6c0,3.9,3,7,6.6,7h47.3c3.6,0,6.6-3.1,6.6-7v-19.6c-0.5-1.6-1.1-3.3-1.9-5
	c-5.1-9.9-15.2-13.3-18.8-14.4c-6.4,0-12.7,0-19.1,0c-3.6,1-13.7,4.5-18.8,14.4C201,231,200.3,232.7,199.8,234.4z"/>
<path class="st3" d="M80,232.9v20.6c0,4.1,3.2,7.4,7,7.4h49.9c3.8,0,7-3.3,7-7.4v-20.6c-0.5-1.7-1.2-3.4-2-5.3
	c-5.4-10.4-16-14-19.8-15.2c-6.7,0-13.4,0-20.1,0c-3.8,1.1-14.4,4.8-19.8,15.2C81,229.5,80.3,231.2,80,232.9z"/>
<ellipse class="st4" cx="143.8" cy="123.3" rx="29.6" ry="19"/>
<polygon class="st4" points="128.1,139.4 128.1,148.3 137.3,142.3 "/>
<g>
	<ellipse class="st4" cx="199.8" cy="152.2" rx="26.3" ry="15.2"/>
	<path class="st4" d="M214.2,165.7v7c-2.8-1.9-5.6-3.8-8.4-5.6C208.6,166.6,211.4,166.1,214.2,165.7z"/>
</g>
<rect x="132.7" y="110.8" class="st5" width="24.7" height="25.5"/>
<text transform="matrix(1 0 0 1 132.6806 126.405)" class="st6 st7">. . .</text>
<rect x="187.5" y="139.2" class="st5" width="24.7" height="25.5"/>
<text transform="matrix(1 0 0 1 187.5082 154.0679)" class="st6 st8">. . .</text>
<g>
	<path class="st3" d="M104.2,84.2l14.5,11.1l-5.1,0.3l20-20.5c0,0,2.3,1.9,2.3,1.9c-1.6,2.2-18.4,25.1-19.4,26.5
		c-1.6-2-12.4-15-14.3-17.2C102.1,86.4,104.2,84.2,104.2,84.2L104.2,84.2z"/>
</g>
<g>
	<path class="st2" d="M274.8,162.7c-2.4-6.3,6.7-12.7,7.1-18.3c0.4-5.3-7.4-5.7-10.7-3l-1.3-3.4c5.4-4.3,17.9-1.8,16.9,5.8
		c0.2,6.8-9.6,11.8-7.7,18.9H274.8z M273.6,170.3c-0.2-4.5,6.7-4.5,6.5,0C280.3,174.7,273.4,174.8,273.6,170.3z"/>
</g>
<g>
	<path class="st2" d="M271.9,216.2c-3.3-8.7,9.3-17.6,9.8-25.3c0.6-7.4-10.3-7.9-14.8-4.1l-1.8-4.7c7.5-6,24.7-2.5,23.3,8.1
		c0.3,9.4-13.2,16.3-10.7,26.1H271.9z M270.3,226.7c-0.2-6.2,9.2-6.2,9,0C279.6,232.8,270,232.9,270.3,226.7z"/>
</g>
<g>
	<path class="st2" d="M234.4,128.6c-4.4-11.8,12.6-23.9,13.2-34.2c0.8-10-13.9-10.6-20-5.6l-2.4-6.4c10.2-8.1,33.4-3.4,31.6,10.9
		c0.4,12.8-17.9,22-14.5,35.4H234.4z M232.1,142.9c-0.3-8.4,12.5-8.5,12.1,0C244.7,151.1,231.8,151.2,232.1,142.9z"/>
</g>
<g>
	<path class="st3" d="M52.7,218.1l17.2,6.1l-4.8,1.8l12.6-25.7c0,0,2.8,1.1,2.8,1.1c-0.8,2.6-9.6,29.6-10.2,31.2
		c-2.2-1.4-16.5-10.3-19-11.9C51.4,220.8,52.7,218.1,52.7,218.1L52.7,218.1z"/>
</g>
<g>
	<path class="st3" d="M20,183.6l14.5,11.1l-5.1,0.3l20-20.5c0,0,2.3,1.9,2.3,1.9c-1.6,2.2-18.4,25.1-19.4,26.5
		c-1.6-2-12.4-15-14.3-17.2C17.9,185.7,20,183.6,20,183.6L20,183.6z"/>
</g>
<g>
	<path class="st3" d="M42.4,123.9l21.3,23.6l-7.5-1L97,117.9l1.9,2.3c-3,2.8-38.6,36.6-40.7,38.6c0,0-2.9-5.3-2.9-5.3l-15.4-27.9
		L42.4,123.9L42.4,123.9z"/>
</g>
<g>
	<path class="st2" d="M309,178.2c0.2-8,13.6-10.7,16.6-16.6c2.9-5.6-6-9.8-10.9-8.5l0.1-4.4c8.3-2.1,21.4,6.7,16.8,14.6
		c-2.9,7.6-16.5,8.2-17.6,16.9L309,178.2z M304.1,185.9c1.9-5,9.8-1.7,7.5,3.1C309.8,194,301.8,190.7,304.1,185.9z"/>
</g>
</svg>
