<?xml version="1.0" encoding="utf-8"?>
<!-- Generator: Adobe Illustrator 26.4.1, SVG Export Plug-In . SVG Version: 6.00 Build 0)  -->
<svg version="1.1" id="Слой_1" xmlns="http://www.w3.org/2000/svg" xmlns:xlink="http://www.w3.org/1999/xlink" x="0px" y="0px"
	 viewBox="0 0 318 328" style="enable-background:new 0 0 318 328;" xml:space="preserve">
<style type="text/css">
	.st0{fill:#8E9DE7;stroke:#FFFFFF;stroke-width:7;stroke-miterlimit:10;}
	.st1{fill:#FF5FFC;stroke:#000000;stroke-width:0.75;stroke-miterlimit:10;}
	.st2{fill:none;stroke:#000000;stroke-width:0.25;stroke-miterlimit:10;}
	.st3{fill:#6C55AE;stroke:#000000;stroke-miterlimit:10;}
	.st4{fill:#C0C0C4;stroke:#000000;stroke-miterlimit:10;}
	.st5{fill:#FFD4F2;}
	.st6{fill:#BD3E46;stroke:#000000;stroke-miterlimit:10;}
	.st7{fill:#FFFFFF;stroke:#000000;stroke-miterlimit:10;}
	.st8{fill:#55C7FF;stroke:#000000;stroke-miterlimit:10;}
	.st9{fill:#808080;stroke:#000000;stroke-miterlimit:10;}
	.st10{fill:none;stroke:#000000;stroke-width:0.75;stroke-miterlimit:10;}
	.st11{fill:#0EC300;stroke:#000000;stroke-miterlimit:10;}
	.st12{fill:none;stroke:#000000;stroke-miterlimit:10;}
	.st13{fill:#909090;stroke:#000000;stroke-width:0.5;stroke-miterlimit:10;}
	.st14{fill:#120821;stroke:#000000;stroke-miterlimit:10;}
	.st15{fill:#6C55AE;stroke:#000000;stroke-width:2;stroke-miterlimit:10;}
	.st16{fill:none;stroke:#000000;stroke-width:2;stroke-miterlimit:10;}
	.st17{fill:none;stroke:#000000;stroke-width:3;stroke-miterlimit:10;}
</style>
<path class="st0" d="M159.4,17.4c-194.9,3.3-194.9,293.3,0,296.6C354.3,310.6,354.3,20.7,159.4,17.4z"/>
<path class="st1" d="M102.8,275.4"/>
<ellipse class="st2" cx="222.7" cy="138.3" rx="0.4" ry="1.5"/>
<g>
	<path class="st3" d="M53.4,266.7l-11.4,0.1c-2,0-3.6-1.6-3.6-3.5l-0.4-60.9c0-2,1.6-3.6,3.6-3.6l11.4-0.1c2,0,3.6,1.6,3.6,3.5
		l0.4,60.9C57,265.1,55.4,266.7,53.4,266.7z"/>
	<path class="st3" d="M73.2,288.6l-11.4,0.1c-2,0-3.6-1.6-3.6-3.5l-0.6-103.5c0-2,1.6-3.6,3.6-3.6l11.4-0.1c2,0,3.6,1.6,3.6,3.5
		L76.7,285C76.7,287,75.1,288.6,73.2,288.6z"/>
	<path class="st3" d="M265.8,265.6l11.4-0.1c2,0,3.6-1.6,3.6-3.6l-0.4-60.9c0-2-1.6-3.6-3.6-3.5l-11.4,0.1c-2,0-3.6,1.6-3.6,3.6
		l0.4,60.9C262.2,264,263.8,265.6,265.8,265.6z"/>
	<path class="st3" d="M246.3,287.7l11.4-0.1c2,0,3.6-1.6,3.6-3.6l-0.6-103.5c0-2-1.6-3.6-3.6-3.5l-11.4,0.1c-2,0-3.6,1.6-3.6,3.6
		l0.6,103.5C242.8,286.2,244.4,287.7,246.3,287.7z"/>
	
		<rect x="77.2" y="224.2" transform="matrix(1 -5.207864e-03 5.207864e-03 1 -1.2106 0.8322)" class="st4" width="163.9" height="17.3"/>
</g>
<g>
	<path class="st5" d="M221.7,138.1c-0.8-4.1-1.6-8.2-2-12.4c-0.1-1.1-0.1-2.1-0.1-3.2c0-0.6,0.1-1.1,0.2-1.7
		c0.1-0.3,0.2-0.6,0.4-0.9c0.3-0.4,0.5-0.5,0.7-0.7c0.1-0.1,0.2-0.2,0.4-0.3l0.1-0.1l0.1-0.1l0.1,0l0.2-0.1c0.3-0.1,0.6-0.2,0.9-0.3
		c0.6-0.1,1.1-0.1,1.6-0.2c1-0.1,1.9-0.2,2.9-0.5c1.9-0.6,3.5-1.6,4.9-3c0.7-0.7,1.3-1.5,2.2-2.2c0.4-0.4,1-0.8,1.7-1
		c0.7-0.2,1.4-0.1,2.1,0.1c1.3,0.5,2.1,1.6,2.6,2.6c0.5,1,1,1.9,1.5,2.7c0.5,0.8,1.1,1.6,1.7,2.2c0.7,0.6,1.4,1.1,2.2,1.4
		c1.6,0.6,3.5,0.5,5.4,0l1.5-0.4c0.5-0.1,1-0.3,1.7-0.4c0.4,0,0.8-0.1,1.3,0.1c0.6,0.1,1.3,0.7,1.5,1.3c0.2,0.5,0.3,1.1,0.3,1.5
		c0,0.4-0.1,0.8-0.2,1.1c-0.4,1.3-1,2.2-1.5,3.1l-1.6,2.6c-0.5,0.8-1,1.7-1.2,2.4c-0.1,0.3-0.1,0.6-0.1,0.6c0,0,0-0.1-0.1-0.2
		c-0.1-0.1-0.1-0.1-0.1-0.1c0,0,0.4,0.1,0.8,0.1c0.4,0,0.8,0,1.3,0c1,0,2-0.2,3.3-0.1c0.7,0.1,1.4,0.1,2.5,0.7
		c0.5,0.3,1.1,1,1.4,1.7c0.3,0.7,0.3,1.5,0.2,2c-0.3,1.1-0.6,1.6-0.7,1.9c-0.1,0.1,0,0.2,0,0c0-0.2,0-0.4-0.2-0.7
		c-0.2-0.3-0.5-0.5-0.5-0.5c-0.1,0,0,0,0.1,0c0.3,0,0.7,0,1.2,0c1,0,2.1-0.2,3.4,0c0.7,0.1,1.4,0.2,2.3,0.6c0.8,0.4,1.8,1.2,2.2,2.1
		c0.5,1,0.6,1.9,0.5,2.7c-0.1,0.8-0.2,1.4-0.4,2c-0.3,1.1-0.7,2.1-0.9,2.8c-0.1,0.4-0.1,0.6-0.1,0.8c0,0.1,0.1,0-0.1-0.1
		c-0.1-0.1-0.2-0.1,0-0.1c0.1,0,0.3,0,0.4,0c0.2,0,0.4,0,0.6,0c0.9-0.1,2-0.2,3.2-0.3c0.3,0,0.6,0,1,0c0.4,0,0.7,0.1,1.1,0.2
		c0.4,0.1,0.8,0.2,1.2,0.4c0.4,0.2,0.8,0.5,1.2,0.8c1.4,1.2,1.9,3.1,1.9,4.5c0,1.4-0.3,2.5-0.4,3.3c-0.1,0.9,0,1.3,0.1,1.4
		c0.1,0,0,0.1,0.2,0.2c0.2,0.1,0.4,0.1,0.8,0.1c0.7,0,1.6-0.1,2.5-0.3c1.8-0.4,3.8-1,5.8-1.6c1-0.3,2-0.6,3.1-0.9
		c1.1-0.2,2.2-0.5,3.8-0.4c0.7,0.1,1.8,0.3,2.7,1.1c0.9,0.9,1.2,2,1.2,2.9c0,0.9-0.2,1.6-0.4,2.2c-0.2,0.6-0.4,1.2-0.7,1.7
		c-1,2.1-2,3.8-3,5.6c-1,1.8-1.9,3.5-2.4,5.2c-0.3,0.8-0.4,1.7-0.3,2.4c0.1,0.7,0.3,1.2,0.7,1.5c0.4,0.3,1.2,0.6,2.1,0.8
		c0.9,0.2,2,0.4,3.1,0.7c1.1,0.3,2.3,0.8,3.3,1.5c0.3,0.2,0.5,0.4,0.7,0.6c0.2,0.2,0.5,0.4,0.7,0.7l0.6,0.7l0.5,0.8
		c0.6,1,1,2,1.4,3.1c0.4,1.1,0.6,2.1,0.8,3.2c0.2,1.1,0.2,2.2,0.2,3.4c0,0.6-0.1,1.1-0.2,1.7c-0.1,0.6-0.3,1.2-0.8,1.9
		c-0.1,0.2-0.3,0.3-0.4,0.5c-0.2,0.2-0.4,0.3-0.6,0.4c-0.5,0.2-1.1,0.2-1.5,0.1c-0.8-0.2-1.3-0.6-1.8-0.9c-0.9-0.7-1.6-1.5-2.3-2.4
		l1.5-1.3c0.7,0.7,1.4,1.4,2.1,1.9c0.4,0.3,0.7,0.4,0.9,0.4c0.1,0,0.1,0,0.1,0c0,0,0,0,0,0c0,0,0-0.1,0.1-0.1
		c0.3-0.5,0.4-1.4,0.4-2.3c0-0.9-0.1-1.9-0.3-2.8c-0.2-0.9-0.5-1.9-0.8-2.7c-0.3-0.9-0.8-1.8-1.3-2.5l-0.4-0.5l-0.4-0.4
		c-0.1-0.2-0.3-0.3-0.5-0.4c-0.2-0.1-0.3-0.3-0.5-0.4c-0.7-0.4-1.5-0.7-2.4-0.9c-0.9-0.2-1.9-0.3-2.9-0.5c-1.1-0.2-2.4-0.4-3.6-1.4
		c-1.3-1-2-2.5-2.1-3.9c-0.2-1.4,0-2.6,0.3-3.8c0.6-2.3,1.6-4.2,2.6-6.1c1-1.9,2-3.7,2.7-5.4c0.4-0.8,0.6-1.7,0.6-2.1
		c0-0.2,0,0,0.1,0.1c0.1,0.1,0.1,0.1-0.1,0c-0.6,0-1.5,0.1-2.4,0.4c-0.9,0.2-1.9,0.5-2.8,0.8c-1.9,0.6-3.9,1.3-6.1,1.8
		c-1.1,0.2-2.3,0.4-3.6,0.4c-0.7,0-1.4-0.1-2.2-0.4c-0.8-0.3-1.7-0.9-2.2-1.7c-0.6-0.8-0.9-1.7-1-2.5c-0.1-0.8-0.1-1.5,0-2.1
		c0.1-1.2,0.3-2.2,0.3-2.8c0-0.3,0-0.6-0.1-0.7c0-0.1-0.1-0.1-0.1-0.2c-0.1,0-0.1-0.1-0.1-0.1c-0.1,0-0.1-0.1-0.4-0.2
		c-0.1,0-0.2-0.1-0.4-0.1c-0.1,0-0.3,0-0.5,0c-0.8,0-1.8,0.2-2.9,0.3c-0.3,0-0.6,0-0.9,0.1c-0.4,0-0.7,0-1.1-0.1
		c-0.8-0.1-1.9-0.4-2.8-1.2c-0.8-0.8-1.3-1.9-1.3-2.8c-0.1-0.9,0-1.7,0.2-2.3c0.3-1.3,0.7-2.2,0.9-3.1c0.1-0.4,0.2-0.8,0.2-1
		c0-0.2,0-0.3,0-0.3c0,0,0.1,0.1,0,0c-0.1,0-0.4-0.1-0.7-0.2c-0.7-0.1-1.7,0-2.8,0c-0.6,0-1.2,0-1.9,0c-0.4-0.1-0.8-0.1-1.4-0.3
		c-0.5-0.2-1.3-0.7-1.7-1.4c-0.4-0.7-0.6-1.5-0.5-2.2c0.1-0.7,0.3-1.1,0.4-1.5c0.3-0.6,0.5-1,0.5-0.9c0,0.1,0,0.3,0.1,0.5
		c0.1,0.2,0.3,0.5,0.4,0.5c0.2,0.1-0.1-0.1-0.5-0.1c-0.8-0.1-1.8-0.1-2.9-0.1c-0.6,0-1.1,0-1.8-0.1c-0.6-0.1-1.3-0.2-2.2-0.6
		c-0.4-0.2-0.9-0.6-1.3-1.1c-0.4-0.5-0.6-1.1-0.6-1.6c-0.1-1.1,0.2-1.8,0.4-2.4c0.5-1.2,1.1-2.1,1.7-3l1.8-2.5
		c0.6-0.8,1.1-1.6,1.4-2.3c0.2-0.3,0.1-0.6,0.2-0.4c0,0.1,0.3,0.3,0.4,0.3c0.1,0,0,0-0.2,0c-0.7,0-1.8,0.3-2.9,0.5
		c-2.1,0.4-4.6,0.5-6.8-0.5c-1.1-0.5-2.1-1.2-2.9-2c-0.8-0.8-1.4-1.8-1.9-2.7c-0.5-1-0.9-1.9-1.4-2.8c-0.5-0.9-1-1.5-1.6-1.8
		c-0.3-0.1-0.7-0.2-1-0.1c-0.3,0.1-0.6,0.3-1,0.6c-0.7,0.6-1.4,1.4-2.2,2.1c-1.6,1.5-3.5,2.6-5.6,3.3c-1,0.3-2.2,0.5-3.2,0.6
		c-1.1,0.1-2,0.1-2.4,0.6c-0.2,0.1-0.3,0.3-0.4,0.4c-0.1,0.1-0.1,0.3-0.2,0.5c-0.1,0.4-0.2,0.9-0.2,1.4c0,1,0,2,0.1,3
		c0.2,2,0.5,4,0.9,6c0.4,2,0.8,4,1.4,6L221.7,138.1z"/>
</g>
<g>
	<path class="st3" d="M152.9,64.5l17.1-5.6c2.4-0.8,5,0.5,5.8,2.9l3.4,10.4c0.8,2.4-0.5,5-2.9,5.8l-17.1,5.6c-2.4,0.8-5-0.5-5.8-2.9
		l-3.4-10.4C149.2,67.8,150.5,65.2,152.9,64.5z"/>
	
		<rect x="161.6" y="95.7" transform="matrix(-0.95 0.3122 -0.3122 -0.95 385.0449 157.053)" class="st6" width="36.8" height="27.3"/>
	<path class="st6" d="M194.6,110c-0.2-1.1-0.7-2.6-1.5-4.3c-1.5-2.7-3.5-4.3-4.7-5.2c-3.6,0.2-8.8,1.3-14.8,3.5
		c-7.2,2.7-12,7.2-11.9,7.3c0,0.1,1.4-1.2,3.2-1.1c2.3,0.2,4,2.6,4.7,4.3c1.8,4.3-0.9,8.8-1.1,9c-2.8,4.2-8.4,5.8-12.8,5
		c-7.7-1.5-11.8-10-12.8-15.8c-0.7-4.3,0.2-7.9,1.6-13.2c1.1-4.4,2-7.6,4.1-10.7c3.8-5.6,9.3-7.6,18.4-10.5
		c8.7-2.8,14.9-5.5,20.9-2.9c2.1,0.9,4.7,4.2,9.9,10.7c0.3,0.3,7,8.8,13.1,20c0.9,1.7,2,3.7,2.7,6.5c0,0,1.4,5.3,0.6,10.1
		c-1.9,11.7-22.9,18-26.5,19.1c-8.5,2.5-21.6,6.5-27.8-0.4c-3.5-3.8-3.4-9.3-3.1-12.8"/>
	<path class="st7" d="M197.9,108.3c-1.4-0.4-2.8-0.8-4.2-1.2"/>
	<line class="st7" x1="171.9" y1="70.5" x2="158" y2="75"/>
	<line class="st7" x1="169.1" y1="68.6" x2="159.4" y2="71.8"/>
</g>
<g>
	<path class="st3" d="M148.6,49l-15.9-5.6c-2.1-0.8-4.5,0.4-5.2,2.5l-3.8,10.8c-0.8,2.1,0.4,4.5,2.5,5.2l15.9,5.6
		c2.1,0.8,4.5-0.4,5.2-2.5l3.8-10.8C151.9,52.1,150.7,49.8,148.6,49z"/>
	
		<rect x="105.3" y="78.3" transform="matrix(0.9433 0.332 -0.332 0.9433 37.1156 -35.4385)" class="st6" width="33.9" height="25.2"/>
	<path class="st6" d="M108.8,91.2c0.2-1,0.7-2.4,1.5-3.9c1.4-2.5,3.3-3.9,4.4-4.7c3.3,0.3,8.1,1.4,13.6,3.5c6.6,2.6,10.9,6.9,10.8,7
		c0,0.1-1.3-1.2-3-1c-2.1,0.1-3.7,2.3-4.4,3.8c-1.8,4,0.7,8.1,0.8,8.3c2.5,3.9,7.7,5.5,11.7,4.8c7.2-1.2,11.1-9,12.1-14.3
		c0.7-3.9-0.1-7.3-1.2-12.2c-1-4.1-1.7-7.1-3.6-10c-3.4-5.2-8.4-7.1-16.8-10.1c-8-2.8-13.6-5.4-19.3-3c-2,0.8-4.5,3.8-9.4,9.7
		c-0.3,0.3-6.6,8-12.5,18.2c-0.9,1.5-1.9,3.4-2.7,6c0,0-1.4,4.8-0.8,9.3c1.5,10.9,20.8,17.1,24.1,18.2c7.8,2.5,19.8,6.4,25.7,0.2
		c3.3-3.4,3.4-8.6,3.1-11.8"/>
	<path class="st7" d="M105.7,89.6c1.3-0.3,2.6-0.7,3.9-1"/>
	<line class="st7" x1="130.2" y1="55.5" x2="142.9" y2="60"/>
	<line class="st7" x1="133.1" y1="53.5" x2="142" y2="56.7"/>
</g>
<g>
	<path class="st8" d="M194.2,248.3c0.8-2.4,1.9-5.8,3.7-10c2.1-5.1,2.9-5.9,3.9-6.5c2.4-1.3,5.6,0,11.9,2.7c7,3,10.5,4.6,11.1,7.4
		c0.2,1,0.1,2-2.6,7.3c-1.9,3.8-3.7,6.8-5,9.1c-2.4,0.2-4.5,1.6-5.4,3.8c-1,2.5-0.2,5.6,2.2,7.3c-0.7,1.8-1.9,4.5-3.3,8
		c-3.1,7.6-3.5,8.7-5,9.5c-1,0.5-2.5,0.9-12.5-3.4c-10.2-4.4-11-5.8-11.3-6.8c-0.6-1.9,0.7-4.8,3.4-10.5c1.3-2.7,2.4-5,3.2-6.5
		c3-0.1,5.6-1.9,6.6-4.5C196.4,251.7,194.3,248.6,194.2,248.3z"/>
	<path class="st8" d="M204.9,240.8c-0.8-0.6-1.4-0.5-1.7-0.5c-0.9,0.2-1.4,1.5-2.5,4c-0.3,0.8-0.7,1.7-1,2.8
		c-0.4,1.2-0.6,2.3-0.7,3.2c0.5,0.6,1.2,1.7,1.4,3.3c0.5,3.5-2.1,6.1-2.5,6.5c-2.1,2.1-4.7,2.4-5.5,2.4c-0.3,0.8-1,2.3-1.9,4.5
		c-0.6,1.5-1,2.3-0.6,3c0.3,0.6,1.1,0.8,1.6,0.8"/>
	<path class="st9" d="M218,236.5l-8.8-3.8c-0.6-0.3-0.9-0.9-0.6-1.5l1.2-2.7c0.3-0.6,0.9-0.9,1.5-0.6l8.8,3.8
		c0.6,0.3,0.9,0.9,0.6,1.5l-1.2,2.7C219.2,236.5,218.5,236.8,218,236.5z"/>
	<path class="st9" d="M216.3,229.4l-1.2-0.5c-0.8-0.3-1.2-1.3-0.8-2.1s1.3-1.2,2.1-0.8l1.2,0.5c0.8,0.3,1.2,1.3,0.8,2.1
		S217.1,229.7,216.3,229.4z"/>
	<path class="st10" d="M218.5,228.1c2-0.6,3.9,0.8,4.2,2.5c0.2,1.5-0.8,3.1-2.5,3.6"/>
</g>
<g>
	<circle class="st11" cx="123.4" cy="203.2" r="10.1"/>
	<path class="st12" d="M125.6,193.3c-0.6,1.4-1.9,3.8-4.4,6c-3,2.7-6.2,3.7-7.8,4.1"/>
	<path class="st12" d="M133.5,202.7c-1.6,0.4-4.4,1.3-7.1,3.6c-3.1,2.5-4.6,5.3-5.3,6.8"/>
</g>
<path class="st13" d="M156.6,30.3c0,0.7-0.6,1.4-1.4,1.4c-0.7,0-1.4-0.6-1.4-1.4s0.6-1.4,1.4-1.4C156,28.9,156.6,29.5,156.6,30.3z"
	/>
<path class="st14" d="M151,37.4"/>
<path class="st12" d="M141.6,46.6c2.4-3.6,4.9-5.6,6.7-6.8c2.1-1.3,3.9-1.8,5.3-3.7c1.4-2,1.7-4.2,1.7-5.8"/>
<path class="st12" d="M155.3,30.3c5.4,3.9,6.9,7.4,7.2,9.9c0.4,3.5-1.4,5.3-2,10c-0.6,4.7,0.3,8.7,1.2,11.4"/>
<g>
	<g>
		<path class="st15" d="M108.3,194.2l-1.5,1.6c-1.1,1.2-2.9,1.2-4.1,0.1l-19-18.2c-1.2-1.1-1.2-2.9-0.1-4.1l1.5-1.6
			c1.1-1.2,2.9-1.2,4.1-0.1l19,18.2C109.3,191.2,109.4,193.1,108.3,194.2z"/>
		
			<ellipse transform="matrix(0.6931 -0.7208 0.7208 0.6931 -87.2476 83.8828)" class="st16" cx="54.9" cy="144.4" rx="23.7" ry="28.3"/>
		<path class="st16" d="M67,169.3c2.4,0.4,5.6,1.3,9,2.9c2.7,1.3,4.9,2.8,6.6,4.1"/>
		<path class="st16" d="M80.3,155.6c0.5,2.4,1.5,5.5,3.3,8.9c1.4,2.7,2.9,4.8,4.3,6.4"/>
	</g>
	<line class="st10" x1="35.9" y1="123.4" x2="71.9" y2="159.5"/>
	<line class="st10" x1="32.2" y1="127.6" x2="67.6" y2="163.7"/>
	<line class="st10" x1="29.8" y1="133.8" x2="63.3" y2="167.9"/>
	<line class="st10" x1="28.9" y1="141.5" x2="57.1" y2="170.2"/>
	<line class="st10" x1="41.2" y1="120.1" x2="75.9" y2="155.5"/>
	<line class="st10" x1="57" y1="119.1" x2="81" y2="143.6"/>
	<line class="st10" x1="47.6" y1="118.1" x2="80.2" y2="151.3"/>
	<line class="st10" x1="41.7" y1="164.1" x2="75" y2="131.3"/>
	<line class="st10" x1="46.8" y1="167.4" x2="78.2" y2="136.7"/>
	<line class="st10" x1="52.7" y1="170" x2="80.4" y2="142.9"/>
	<line class="st10" x1="61.1" y1="170.7" x2="81.1" y2="150.1"/>
	<line class="st10" x1="38" y1="160.3" x2="72.1" y2="126.8"/>
	<line class="st10" x1="28.6" y1="135.9" x2="46.8" y2="118.1"/>
	<line class="st10" x1="28.7" y1="144.2" x2="54.9" y2="118.5"/>
	<line class="st10" x1="30.5" y1="150.9" x2="61.6" y2="120.3"/>
	<line class="st10" x1="33.8" y1="156" x2="66.8" y2="123.7"/>
</g>
<g>
	<g>
		<path class="st15" d="M156.1,195.9l-1,1.1c-1.1,1.2-2.9,1.2-4.1,0.1l-16.9-16.2c-1.2-1.1-1.2-2.9-0.1-4.1l1-1.1
			c1.1-1.2,2.9-1.2,4.1-0.1l16.9,16.2C157.1,192.9,157.2,194.8,156.1,195.9z"/>
		
			<ellipse transform="matrix(0.6931 -0.7208 0.7208 0.6931 -75.3861 123.8128)" class="st16" cx="107.7" cy="150.4" rx="21.6" ry="25.8"/>
		<path class="st16" d="M118.7,173.1c2.2,0.4,5.1,1.2,8.2,2.6c2.5,1.2,4.4,2.5,6,3.7"/>
		<path class="st16" d="M130.8,160.6c0.5,2.2,1.4,5,3,8.1c1.3,2.4,2.7,4.3,3.9,5.8"/>
	</g>
	<line class="st10" x1="90.5" y1="131.3" x2="123.1" y2="164.2"/>
	<line class="st10" x1="87.1" y1="135.2" x2="119.3" y2="168"/>
	<line class="st10" x1="84.9" y1="140.8" x2="115.4" y2="171.8"/>
	<line class="st10" x1="84.1" y1="147.8" x2="109.7" y2="173.9"/>
	<line class="st10" x1="95.3" y1="128.4" x2="126.9" y2="160.6"/>
	<line class="st10" x1="109.7" y1="127.4" x2="131.5" y2="149.7"/>
	<line class="st10" x1="101.1" y1="126.5" x2="130.8" y2="156.7"/>
	<line class="st10" x1="95.7" y1="168.3" x2="126" y2="138.6"/>
	<line class="st10" x1="100.4" y1="171.3" x2="128.9" y2="143.4"/>
	<line class="st10" x1="105.8" y1="173.7" x2="130.9" y2="149.1"/>
	<line class="st10" x1="113.3" y1="174.3" x2="131.5" y2="155.6"/>
	<line class="st10" x1="92.3" y1="164.9" x2="123.4" y2="134.5"/>
	<line class="st10" x1="83.8" y1="142.7" x2="100.4" y2="126.5"/>
	<line class="st10" x1="83.9" y1="150.2" x2="107.7" y2="126.9"/>
	<line class="st10" x1="85.5" y1="156.3" x2="113.8" y2="128.5"/>
	<line class="st10" x1="88.5" y1="161" x2="118.6" y2="131.6"/>
</g>
<ellipse class="st2" cx="228.3" cy="146.4" rx="0.4" ry="1.5"/>
<g>
	<path class="st5" d="M227.4,146c0.3-4.3,2.1-8.7,5.1-11.9c1.5-1.6,3.1-3,5-4.2c0.9-0.6,1.9-1.1,3-1.5c0.5-0.2,1.1-0.4,1.8-0.4
		c0.3,0,0.7,0,1.1,0c0.4,0.1,0.8,0.3,1.2,0.6c0.2,0.2,0.3,0.4,0.4,0.5c0.1,0.2,0.2,0.3,0.2,0.5c0.1,0.3,0.2,0.7,0.2,1
		c0.1,0.6,0.1,1.2,0,1.8c-0.1,1.1-0.3,2.2-0.6,3.2c-0.5,2.1-1.1,4.1-1.3,6c-0.1,1-0.2,1.9,0,2.7c0.1,0.4,0.3,0.6,0.4,0.8
		c0.2,0.1,0.4,0.2,0.8,0.2c0.4,0,0.8-0.1,1.3-0.2c0.5-0.1,1-0.2,1.7-0.3c0.6,0,1.4,0,2.2,0.4c0.7,0.5,1.1,1.2,1.4,1.8
		c0.4,1.4,0.2,2.5,0.1,3.6c-0.2,1.1-0.4,2.1-0.4,3c-0.1,0.9,0,1.8,0.4,2.3c0.2,0.3,0.4,0.5,0.7,0.6c0.3,0.1,0.7,0.3,1.1,0.3
		c0.9,0.1,1.9,0,3.1,0.1c0.6,0.1,1.3,0.1,2.1,0.8c0.8,0.7,1,1.6,0.9,2.4c-0.1,0.8-0.4,1.4-0.6,1.8c-0.2,0.4-0.3,0.8-0.3,1.1
		c0,0.6,0.3,1.1,1,1.6c1.4,1,3.5,1.6,5.4,2.1c2,0.5,4,1,6.1,1.6c1,0.3,2.1,0.7,3.2,1.2c0.5,0.3,1.1,0.6,1.6,1.1
		c0.5,0.5,1,1.2,1.1,2.2c0.1,0.9-0.2,1.7-0.5,2.3c-0.3,0.6-0.7,1-0.9,1.4c-0.1,0.2-0.2,0.3-0.2,0.4c0,0,0.1-0.1-0.1-0.4
		c0-0.1-0.1-0.2-0.2-0.2c-0.1-0.1-0.1-0.1-0.2-0.1c0,0-0.1,0-0.1,0c0,0,0,0,0,0c0.1,0,0.2,0,0.4-0.1c0.8-0.2,1.8-0.5,2.9-0.8
		c1.1-0.3,2.2-0.6,3.5-0.6c0.7,0,1.4,0.1,2.2,0.4c0.8,0.3,1.5,1,1.9,1.6c0.4,0.7,0.6,1.4,0.7,2.1c0.1,0.7,0.1,1.3,0,1.9
		c-0.2,2.4-0.8,4.4-1.3,6.4c-0.5,2-1.1,4-1.4,5.9c-0.1,1-0.2,1.9-0.2,2.7c0.1,0.8,0.3,1.6,0.6,1.9c0.3,0.4,0.8,0.6,1.6,0.6
		c0.8,0.1,1.7-0.1,2.7-0.2l3.1-0.6c1.1-0.2,2.2-0.4,3.7-0.2c0.7,0.1,1.6,0.4,2.3,1.1c0.7,0.7,1.1,1.5,1.3,2.3c0.4,1.6,0.1,2.8-0.2,4
		c-0.6,2.3-1.5,4.2-2.3,6.2c-0.9,1.9-1.8,3.8-2.3,5.6c-0.3,0.9-0.5,1.8-0.4,2.3c0,0.1,0,0.2,0,0.2c0,0-0.1-0.1-0.2-0.2
		c-0.2-0.1,0,0,0.3,0c0.6,0,1.6-0.2,2.5-0.5c0.9-0.3,1.9-0.6,2.9-1c1.9-0.7,3.9-1.5,6.1-2.1c1.1-0.3,2.2-0.6,3.6-0.6
		c0.7,0,1.5,0.1,2.3,0.5c0.2,0.1,0.4,0.2,0.6,0.4c0.2,0.2,0.4,0.3,0.6,0.5c0.3,0.4,0.6,0.8,0.8,1.2c0.2,0.4,0.2,0.8,0.3,1.2
		c0,0.4,0.1,0.8,0,1.1c0,0.7-0.2,1.3-0.3,1.9c-0.3,1.2-0.8,2.2-1.2,3.2c-1,2-2.2,3.8-3.6,5.4l-1.7-1c0.7-2,1.5-3.9,2.2-5.7
		c0.3-0.9,0.6-1.9,0.8-2.7c0.2-0.8,0.2-1.7,0.1-1.9c0-0.1-0.1-0.1,0-0.1c0,0,0,0,0,0c-0.1,0-0.4-0.1-0.7-0.1c-0.7,0-1.7,0.2-2.6,0.5
		c-1.9,0.5-3.8,1.3-5.8,2c-1,0.4-2,0.7-3.1,1c-1.1,0.3-2.2,0.6-3.6,0.7c-0.7,0-1.6,0-2.7-0.8c-0.5-0.4-0.9-0.9-1.1-1.4
		c-0.2-0.5-0.3-0.9-0.3-1.3c-0.1-1.6,0.3-2.8,0.6-3.9c0.7-2.2,1.7-4.1,2.6-5.9c0.9-1.9,1.7-3.7,2.2-5.5c0.2-0.9,0.3-1.7,0.2-2.2
		c-0.1-0.2-0.1-0.4-0.2-0.4c0-0.1-0.2-0.1-0.5-0.2c-0.6-0.1-1.5,0-2.5,0.1l-3.1,0.6c-1.1,0.2-2.2,0.3-3.6,0.2
		c-0.7-0.1-1.4-0.2-2.1-0.5c-0.7-0.3-1.4-0.8-1.9-1.4c-1-1.2-1.3-2.7-1.4-3.9c-0.1-1.2,0.1-2.4,0.2-3.5c0.4-2.2,1-4.2,1.6-6.2
		c0.6-2,1.1-4,1.3-5.8c0.1-0.9,0-1.7-0.3-2.1c-0.1-0.2-0.2-0.3-0.4-0.4c-0.2-0.1-0.5-0.2-0.9-0.2c-0.8,0-1.7,0.2-2.7,0.5
		c-1,0.3-1.9,0.6-3.2,0.8c-0.3,0-0.7,0.1-1.1,0.1c-0.1,0-0.3,0-0.4-0.1c-0.2,0-0.3-0.1-0.5-0.2c-0.2-0.1-0.4-0.2-0.5-0.4
		c-0.2-0.2-0.3-0.4-0.4-0.5c-0.4-0.8-0.2-1.5-0.1-1.9c0.2-0.4,0.4-0.7,0.5-1c0.3-0.5,0.6-0.9,0.8-1.2c0.2-0.3,0.3-0.6,0.2-0.7
		c0-0.2-0.4-0.8-1.2-1.2c-0.8-0.4-1.7-0.8-2.7-1.1c-1.9-0.6-4-1.1-6-1.6c-1-0.3-2.1-0.6-3.1-1c-1-0.4-2.1-0.8-3.1-1.6
		c-0.5-0.4-1-0.8-1.4-1.5c-0.4-0.6-0.6-1.4-0.5-2.2c0-0.8,0.3-1.4,0.6-1.9c0.2-0.5,0.4-0.9,0.4-1.1c0-0.2,0-0.4-0.1-0.4
		c-0.1-0.1-0.4-0.2-0.8-0.2c-0.9-0.1-2,0-3.2-0.1c-0.6-0.1-1.2-0.2-1.9-0.5c-0.6-0.4-1.2-0.8-1.6-1.5c-0.8-1.2-0.8-2.6-0.7-3.7
		c0.1-1.1,0.3-2.2,0.5-3.2c0.2-1,0.2-1.9,0-2.6c-0.3-0.7-0.4-0.8-1.3-0.8c-0.4,0-0.9,0.1-1.4,0.2c-0.5,0.1-1.1,0.2-1.8,0.2
		c-0.7,0-1.5-0.2-2.2-0.7c-0.6-0.6-0.9-1.2-1.1-1.9c-0.3-1.3-0.2-2.4,0-3.5c0.3-2.2,0.9-4.2,1.4-6.2c0.2-1,0.4-2,0.5-2.9
		c0-0.5,0.1-0.9,0-1.3c0-0.2-0.1-0.4-0.1-0.5c0-0.1-0.1-0.2-0.1-0.2c0-0.1-0.1-0.1-0.1-0.1c0,0-0.2-0.1-0.6-0.1
		c-0.4,0-0.8,0.2-1.3,0.3c-0.9,0.3-1.8,0.8-2.6,1.3c-1.7,1.1-3.2,2.4-4.6,3.9c-2.7,2.9-4.2,6.8-4.6,10.7L227.4,146z"/>
</g>
<line class="st17" x1="222.7" y1="139.2" x2="220.6" y2="178.6"/>
<line class="st17" x1="228.3" y1="147" x2="226.2" y2="181.7"/>
</svg>
